STARTFONT 2.1
COMMENT $XFree86$
COMMENT ISO10646-1 extension by Markus Kuhn <mkuhn@acm.org>, 2001-03-20
COMMENT  (c) Copyright Bigelow & Holmes 1986, 1985. Lucida is a registered
COMMENT  trademark of Bigelow & Holmes. See LEGAL NOTICE file for terms 
COMMENT  of the license. 
COMMENT GRID 0010 0010 0200 0200
FONT -B&H-Lucida-Bold-I-Normal-Sans-10-100-75-75-P-67-ISO10646-1
SIZE 10 72 72
FONTBOUNDINGBOX 14 18 -1 -5
STARTPROPERTIES 22
COMMENT Begin LogicalFontDescription
FONTNAME_REGISTRY ""
FOUNDRY "B&H"
FAMILY_NAME "Lucida"
WEIGHT_NAME "Bold"
SLANT "I"
SETWIDTH_NAME "Normal"
ADD_STYLE_NAME "Sans"
PIXEL_SIZE 10
POINT_SIZE 100
RESOLUTION_X 75
RESOLUTION_Y 75
SPACING "P"
AVERAGE_WIDTH 67
CHARSET_REGISTRY "ISO10646"
CHARSET_ENCODING "1"
COMMENT END LogicalFontDescription
FONT_ASCENT 9
FONT_DESCENT 2
DEFAULT_CHAR 0
COPYRIGHT "Copyright Bigelow & Holmes 1986, 1985."
FACE_NAME "Lucida Sans Bold Italic"
X_HEIGHT 6
CAP_HEIGHT 7
ENDPROPERTIES
CHARS 723
STARTCHAR char0
ENCODING 0
SWIDTH 813 0
DWIDTH 8 0
BBX 7 7 1 0
BITMAP
AA
00
82
00
82
00
AA
ENDCHAR
STARTCHAR space
ENCODING 32
SWIDTH 343 0
DWIDTH 3 0
BBX 1 1 0 0
BITMAP
00
ENDCHAR
STARTCHAR exclam
ENCODING 33
SWIDTH 343 0
DWIDTH 4 0
BBX 4 7 1 0
BITMAP
30
30
60
60
00
C0
C0
ENDCHAR
STARTCHAR quotedbl
ENCODING 34
SWIDTH 530 0
DWIDTH 5 0
BBX 3 3 2 5
BITMAP
A0
A0
A0
ENDCHAR
STARTCHAR numbersign
ENCODING 35
SWIDTH 687 0
DWIDTH 7 0
BBX 8 7 0 0
BITMAP
1A
1A
7B
34
F6
68
68
ENDCHAR
STARTCHAR dollar
ENCODING 36
SWIDTH 687 0
DWIDTH 7 0
BBX 7 9 1 -1
BITMAP
08
3E
68
78
38
3C
2C
F8
20
ENDCHAR
STARTCHAR percent
ENCODING 37
SWIDTH 908 0
DWIDTH 9 0
BBX 8 7 1 0
BITMAP
62
B6
6C
18
36
6B
46
ENDCHAR
STARTCHAR ampersand
ENCODING 38
SWIDTH 816 0
DWIDTH 8 0
BBX 8 7 1 0
BITMAP
38
6C
38
73
DA
CC
76
ENDCHAR
STARTCHAR quotesingle
ENCODING 39
SWIDTH 265 0
DWIDTH 3 0
BBX 1 3 2 5
BITMAP
80
80
80
ENDCHAR
STARTCHAR parenleft
ENCODING 40
SWIDTH 386 0
DWIDTH 4 0
BBX 5 9 1 -1
BITMAP
18
30
60
60
C0
C0
C0
C0
60
ENDCHAR
STARTCHAR parenright
ENCODING 41
SWIDTH 386 0
DWIDTH 4 0
BBX 5 9 0 -1
BITMAP
30
18
18
18
18
30
30
60
C0
ENDCHAR
STARTCHAR asterisk
ENCODING 42
SWIDTH 464 0
DWIDTH 5 0
BBX 6 3 0 4
BITMAP
6C
30
D8
ENDCHAR
STARTCHAR plus
ENCODING 43
SWIDTH 687 0
DWIDTH 7 0
BBX 6 5 1 1
BITMAP
10
10
FC
20
20
ENDCHAR
STARTCHAR comma
ENCODING 44
SWIDTH 343 0
DWIDTH 3 0
BBX 3 3 0 -1
BITMAP
60
60
C0
ENDCHAR
STARTCHAR hyphen
ENCODING 45
SWIDTH 289 0
DWIDTH 3 0
BBX 2 1 1 3
BITMAP
C0
ENDCHAR
STARTCHAR period
ENCODING 46
SWIDTH 343 0
DWIDTH 3 0
BBX 2 2 1 0
BITMAP
C0
C0
ENDCHAR
STARTCHAR slash
ENCODING 47
SWIDTH 596 0
DWIDTH 6 0
BBX 6 9 0 -1
BITMAP
0C
0C
18
18
30
60
60
C0
C0
ENDCHAR
STARTCHAR zero
ENCODING 48
SWIDTH 687 0
DWIDTH 7 0
BBX 6 7 1 0
BITMAP
38
6C
4C
CC
C8
D8
70
ENDCHAR
STARTCHAR one
ENCODING 49
SWIDTH 687 0
DWIDTH 7 0
BBX 4 7 2 0
BITMAP
30
F0
30
70
60
60
60
ENDCHAR
STARTCHAR two
ENCODING 50
SWIDTH 687 0
DWIDTH 7 0
BBX 6 7 1 0
BITMAP
38
4C
0C
18
60
F8
F8
ENDCHAR
STARTCHAR three
ENCODING 51
SWIDTH 687 0
DWIDTH 7 0
BBX 6 7 1 0
BITMAP
38
4C
0C
38
18
98
70
ENDCHAR
STARTCHAR four
ENCODING 52
SWIDTH 687 0
DWIDTH 7 0
BBX 6 7 1 0
BITMAP
18
38
58
98
FC
30
30
ENDCHAR
STARTCHAR five
ENCODING 53
SWIDTH 687 0
DWIDTH 7 0
BBX 6 7 1 0
BITMAP
3C
7C
40
70
18
98
70
ENDCHAR
STARTCHAR six
ENCODING 54
SWIDTH 687 0
DWIDTH 7 0
BBX 7 7 1 0
BITMAP
1C
32
60
78
CC
CC
78
ENDCHAR
STARTCHAR seven
ENCODING 55
SWIDTH 687 0
DWIDTH 7 0
BBX 6 7 2 0
BITMAP
7C
7C
08
30
60
C0
C0
ENDCHAR
STARTCHAR eight
ENCODING 56
SWIDTH 687 0
DWIDTH 7 0
BBX 7 7 1 0
BITMAP
3C
66
66
7C
CC
CC
78
ENDCHAR
STARTCHAR nine
ENCODING 57
SWIDTH 687 0
DWIDTH 7 0
BBX 7 7 1 0
BITMAP
3C
66
66
3C
0C
98
70
ENDCHAR
STARTCHAR colon
ENCODING 58
SWIDTH 343 0
DWIDTH 4 0
BBX 3 6 1 0
BITMAP
60
60
00
00
C0
C0
ENDCHAR
STARTCHAR semicolon
ENCODING 59
SWIDTH 343 0
DWIDTH 4 0
BBX 4 7 0 -1
BITMAP
30
30
00
00
60
60
C0
ENDCHAR
STARTCHAR less
ENCODING 60
SWIDTH 687 0
DWIDTH 7 0
BBX 6 5 1 1
BITMAP
1C
70
C0
60
30
ENDCHAR
STARTCHAR equal
ENCODING 61
SWIDTH 687 0
DWIDTH 7 0
BBX 6 3 1 2
BITMAP
7C
00
F8
ENDCHAR
STARTCHAR greater
ENCODING 62
SWIDTH 687 0
DWIDTH 7 0
BBX 6 5 1 1
BITMAP
30
18
0C
38
E0
ENDCHAR
STARTCHAR question
ENCODING 63
SWIDTH 539 0
DWIDTH 6 0
BBX 5 7 2 0
BITMAP
70
98
18
70
00
C0
C0
ENDCHAR
STARTCHAR at
ENCODING 64
SWIDTH 833 0
DWIDTH 9 0
BBX 8 7 1 0
BITMAP
1E
63
4F
96
9B
80
7C
ENDCHAR
STARTCHAR A
ENCODING 65
SWIDTH 771 0
DWIDTH 8 0
BBX 6 7 1 0
BITMAP
0C
1C
2C
6C
7C
CC
CC
ENDCHAR
STARTCHAR B
ENCODING 66
SWIDTH 660 0
DWIDTH 7 0
BBX 6 7 1 0
BITMAP
78
6C
6C
F8
CC
CC
F8
ENDCHAR
STARTCHAR C
ENCODING 67
SWIDTH 737 0
DWIDTH 7 0
BBX 6 7 1 0
BITMAP
1C
70
60
C0
C0
E0
78
ENDCHAR
STARTCHAR D
ENCODING 68
SWIDTH 822 0
DWIDTH 8 0
BBX 7 7 1 0
BITMAP
7C
66
66
E6
CC
CC
F0
ENDCHAR
STARTCHAR E
ENCODING 69
SWIDTH 642 0
DWIDTH 7 0
BBX 6 7 1 0
BITMAP
7C
60
60
F8
C0
C0
F8
ENDCHAR
STARTCHAR F
ENCODING 70
SWIDTH 614 0
DWIDTH 6 0
BBX 6 7 1 0
BITMAP
7C
60
60
F8
C0
C0
C0
ENDCHAR
STARTCHAR G
ENCODING 71
SWIDTH 755 0
DWIDTH 8 0
BBX 7 7 1 0
BITMAP
1E
70
60
CC
CC
EC
78
ENDCHAR
STARTCHAR H
ENCODING 72
SWIDTH 813 0
DWIDTH 8 0
BBX 7 7 1 0
BITMAP
66
66
66
FE
CC
CC
CC
ENDCHAR
STARTCHAR I
ENCODING 73
SWIDTH 361 0
DWIDTH 4 0
BBX 3 7 1 0
BITMAP
60
60
60
E0
C0
C0
C0
ENDCHAR
STARTCHAR J
ENCODING 74
SWIDTH 502 0
DWIDTH 5 0
BBX 5 8 0 -1
BITMAP
18
18
18
38
30
30
70
E0
ENDCHAR
STARTCHAR K
ENCODING 75
SWIDTH 753 0
DWIDTH 8 0
BBX 7 7 1 0
BITMAP
66
6C
78
F0
D8
CC
C6
ENDCHAR
STARTCHAR L
ENCODING 76
SWIDTH 623 0
DWIDTH 6 0
BBX 5 7 1 0
BITMAP
60
60
60
E0
C0
C0
F8
ENDCHAR
STARTCHAR M
ENCODING 77
SWIDTH 940 0
DWIDTH 10 0
BBX 9 7 1 0
BITMAP
6180
7380
7D80
D980
9B00
9300
8300
ENDCHAR
STARTCHAR N
ENCODING 78
SWIDTH 789 0
DWIDTH 8 0
BBX 7 7 1 0
BITMAP
62
72
72
5C
DC
8C
8C
ENDCHAR
STARTCHAR O
ENCODING 79
SWIDTH 855 0
DWIDTH 9 0
BBX 8 7 1 0
BITMAP
1E
73
63
C3
C6
CE
78
ENDCHAR
STARTCHAR P
ENCODING 80
SWIDTH 645 0
DWIDTH 7 0
BBX 7 7 1 0
BITMAP
7C
66
66
F8
C0
C0
C0
ENDCHAR
STARTCHAR Q
ENCODING 81
SWIDTH 855 0
DWIDTH 9 0
BBX 8 9 1 -2
BITMAP
1E
73
63
C3
C6
CE
78
0E
03
ENDCHAR
STARTCHAR R
ENCODING 82
SWIDTH 708 0
DWIDTH 8 0
BBX 7 7 1 0
BITMAP
7C
66
66
FC
D8
CC
CC
ENDCHAR
STARTCHAR S
ENCODING 83
SWIDTH 639 0
DWIDTH 7 0
BBX 6 7 1 0
BITMAP
3C
60
60
30
18
18
F0
ENDCHAR
STARTCHAR T
ENCODING 84
SWIDTH 747 0
DWIDTH 8 0
BBX 6 7 2 0
BITMAP
FC
30
30
70
60
60
60
ENDCHAR
STARTCHAR U
ENCODING 85
SWIDTH 759 0
DWIDTH 8 0
BBX 7 7 1 0
BITMAP
66
66
66
CC
CC
C8
70
ENDCHAR
STARTCHAR V
ENCODING 86
SWIDTH 765 0
DWIDTH 8 0
BBX 6 7 2 0
BITMAP
CC
CC
C8
D8
D0
E0
C0
ENDCHAR
STARTCHAR W
ENCODING 87
SWIDTH 991 0
DWIDTH 11 0
BBX 10 7 2 0
BITMAP
C0C0
CCC0
CC80
DD80
DD00
EE00
CC00
ENDCHAR
STARTCHAR X
ENCODING 88
SWIDTH 696 0
DWIDTH 7 0
BBX 8 7 0 0
BITMAP
33
36
3C
18
3C
6C
CC
ENDCHAR
STARTCHAR Y
ENCODING 89
SWIDTH 681 0
DWIDTH 7 0
BBX 6 7 2 0
BITMAP
CC
CC
D8
70
60
60
60
ENDCHAR
STARTCHAR Z
ENCODING 90
SWIDTH 687 0
DWIDTH 7 0
BBX 6 7 1 0
BITMAP
7C
1C
18
30
60
E0
F8
ENDCHAR
STARTCHAR bracketleft
ENCODING 91
SWIDTH 386 0
DWIDTH 4 0
BBX 5 9 0 -1
BITMAP
38
30
30
60
60
60
C0
C0
E0
ENDCHAR
STARTCHAR backslash
ENCODING 92
SWIDTH 566 0
DWIDTH 6 0
BBX 4 9 1 -1
BITMAP
C0
C0
C0
60
60
60
30
30
30
ENDCHAR
STARTCHAR bracketright
ENCODING 93
SWIDTH 386 0
DWIDTH 4 0
BBX 5 9 0 -1
BITMAP
38
18
18
30
30
30
60
60
E0
ENDCHAR
STARTCHAR asciicircum
ENCODING 94
SWIDTH 687 0
DWIDTH 7 0
BBX 6 5 1 1
BITMAP
0C
1C
2C
4C
8C
ENDCHAR
STARTCHAR underscore
ENCODING 95
SWIDTH 500 0
DWIDTH 8 0
BBX 6 1 1 -1
BITMAP
FC
ENDCHAR
STARTCHAR grave
ENCODING 96
SWIDTH 663 0
DWIDTH 7 0
BBX 3 2 4 7
BITMAP
C0
60
ENDCHAR
STARTCHAR a
ENCODING 97
SWIDTH 681 0
DWIDTH 7 0
BBX 6 6 1 0
BITMAP
3C
6C
CC
D8
F8
D8
ENDCHAR
STARTCHAR b
ENCODING 98
SWIDTH 681 0
DWIDTH 7 0
BBX 6 8 1 0
BITMAP
30
30
2C
7C
6C
CC
D8
F0
ENDCHAR
STARTCHAR c
ENCODING 99
SWIDTH 548 0
DWIDTH 6 0
BBX 5 6 1 0
BITMAP
38
60
C0
C0
C0
70
ENDCHAR
STARTCHAR d
ENCODING 100
SWIDTH 681 0
DWIDTH 7 0
BBX 7 8 1 0
BITMAP
06
06
3C
6C
CC
D8
F8
D8
ENDCHAR
STARTCHAR e
ENCODING 101
SWIDTH 612 0
DWIDTH 6 0
BBX 5 6 1 0
BITMAP
38
58
D8
F0
C0
70
ENDCHAR
STARTCHAR f
ENCODING 102
SWIDTH 464 0
DWIDTH 6 0
BBX 6 10 1 -2
BITMAP
1C
30
7C
30
60
60
60
C0
C0
C0
ENDCHAR
STARTCHAR g
ENCODING 103
SWIDTH 674 0
DWIDTH 7 0
BBX 6 8 1 -2
BITMAP
3C
6C
CC
D8
F8
D8
18
F0
ENDCHAR
STARTCHAR h
ENCODING 104
SWIDTH 675 0
DWIDTH 7 0
BBX 6 8 1 0
BITMAP
30
30
6C
7C
6C
C8
D8
D8
ENDCHAR
STARTCHAR i
ENCODING 105
SWIDTH 343 0
DWIDTH 4 0
BBX 4 8 1 0
BITMAP
30
00
60
60
60
C0
C0
C0
ENDCHAR
STARTCHAR j
ENCODING 106
SWIDTH 407 0
DWIDTH 4 0
BBX 6 10 -1 -2
BITMAP
0C
00
18
18
18
30
30
30
60
E0
ENDCHAR
STARTCHAR k
ENCODING 107
SWIDTH 666 0
DWIDTH 7 0
BBX 7 8 1 0
BITMAP
30
30
66
6C
78
F0
D8
CC
ENDCHAR
STARTCHAR l
ENCODING 108
SWIDTH 343 0
DWIDTH 4 0
BBX 4 8 1 0
BITMAP
30
30
60
60
60
C0
C0
C0
ENDCHAR
STARTCHAR m
ENCODING 109
SWIDTH 991 0
DWIDTH 10 0
BBX 9 6 1 0
BITMAP
6D80
7F80
6D80
C900
DB00
DB00
ENDCHAR
STARTCHAR n
ENCODING 110
SWIDTH 675 0
DWIDTH 7 0
BBX 6 6 1 0
BITMAP
6C
7C
6C
C8
D8
D8
ENDCHAR
STARTCHAR o
ENCODING 111
SWIDTH 663 0
DWIDTH 7 0
BBX 6 6 1 0
BITMAP
38
6C
CC
CC
D8
70
ENDCHAR
STARTCHAR p
ENCODING 112
SWIDTH 681 0
DWIDTH 7 0
BBX 7 8 0 -2
BITMAP
36
3E
36
66
6C
78
C0
C0
ENDCHAR
STARTCHAR q
ENCODING 113
SWIDTH 681 0
DWIDTH 7 0
BBX 6 8 1 -2
BITMAP
3C
6C
CC
D8
F8
D8
30
30
ENDCHAR
STARTCHAR r
ENCODING 114
SWIDTH 542 0
DWIDTH 6 0
BBX 5 6 1 0
BITMAP
68
78
60
C0
C0
C0
ENDCHAR
STARTCHAR s
ENCODING 115
SWIDTH 527 0
DWIDTH 6 0
BBX 6 6 0 0
BITMAP
3C
60
70
38
18
F0
ENDCHAR
STARTCHAR t
ENCODING 116
SWIDTH 437 0
DWIDTH 5 0
BBX 5 7 1 0
BITMAP
30
F8
60
60
C0
C0
E0
ENDCHAR
STARTCHAR u
ENCODING 117
SWIDTH 675 0
DWIDTH 7 0
BBX 6 6 1 0
BITMAP
6C
6C
4C
D8
F8
D8
ENDCHAR
STARTCHAR v
ENCODING 118
SWIDTH 630 0
DWIDTH 7 0
BBX 6 6 2 0
BITMAP
CC
CC
D8
D0
E0
C0
ENDCHAR
STARTCHAR w
ENCODING 119
SWIDTH 878 0
DWIDTH 9 0
BBX 8 6 1 0
BITMAP
C3
DB
DB
DA
FC
D8
ENDCHAR
STARTCHAR x
ENCODING 120
SWIDTH 563 0
DWIDTH 6 0
BBX 6 6 0 0
BITMAP
6C
6C
38
70
D8
D8
ENDCHAR
STARTCHAR y
ENCODING 121
SWIDTH 633 0
DWIDTH 7 0
BBX 7 8 0 -2
BITMAP
66
66
66
6C
68
70
60
C0
ENDCHAR
STARTCHAR z
ENCODING 122
SWIDTH 630 0
DWIDTH 7 0
BBX 6 6 1 0
BITMAP
7C
0C
38
70
C0
F8
ENDCHAR
STARTCHAR braceleft
ENCODING 123
SWIDTH 386 0
DWIDTH 4 0
BBX 6 9 0 -1
BITMAP
0C
18
30
30
C0
20
60
60
30
ENDCHAR
STARTCHAR bar
ENCODING 124
SWIDTH 259 0
DWIDTH 4 0
BBX 4 9 1 -1
BITMAP
30
30
20
60
60
60
40
C0
C0
ENDCHAR
STARTCHAR braceright
ENCODING 125
SWIDTH 386 0
DWIDTH 4 0
BBX 6 9 0 -1
BITMAP
30
18
18
10
0C
30
30
60
C0
ENDCHAR
STARTCHAR asciitilde
ENCODING 126
SWIDTH 687 0
DWIDTH 7 0
BBX 6 2 1 3
BITMAP
74
B8
ENDCHAR
STARTCHAR space
ENCODING 160
SWIDTH 343 0
DWIDTH 3 0
BBX 1 1 0 0
BITMAP
00
ENDCHAR
STARTCHAR exclamdown
ENCODING 161
SWIDTH 343 0
DWIDTH 4 0
BBX 4 8 0 -2
BITMAP
30
30
00
60
60
C0
C0
C0
ENDCHAR
STARTCHAR cent
ENCODING 162
SWIDTH 687 0
DWIDTH 7 0
BBX 6 9 1 -1
BITMAP
08
08
3C
60
C0
C0
78
20
20
ENDCHAR
STARTCHAR sterling
ENCODING 163
SWIDTH 687 0
DWIDTH 7 0
BBX 6 7 1 0
BITMAP
1C
30
30
F8
60
60
FC
ENDCHAR
STARTCHAR currency
ENCODING 164
SWIDTH 687 0
DWIDTH 7 0
BBX 8 8 0 -1
BITMAP
41
63
3E
66
66
7C
C6
82
ENDCHAR
STARTCHAR yen
ENCODING 165
SWIDTH 687 0
DWIDTH 7 0
BBX 7 7 1 0
BITMAP
66
66
64
38
FC
30
30
ENDCHAR
STARTCHAR brokenbar
ENCODING 166
SWIDTH 259 0
DWIDTH 4 0
BBX 4 9 1 -1
BITMAP
30
30
20
00
00
00
40
C0
C0
ENDCHAR
STARTCHAR section
ENCODING 167
SWIDTH 687 0
DWIDTH 7 0
BBX 7 8 0 -1
BITMAP
1E
30
38
4C
64
38
18
F0
ENDCHAR
STARTCHAR dieresis
ENCODING 168
SWIDTH 663 0
DWIDTH 7 0
BBX 4 2 3 7
BITMAP
90
90
ENDCHAR
STARTCHAR copyright
ENCODING 169
SWIDTH 834 0
DWIDTH 9 0
BBX 7 7 2 0
BITMAP
38
44
BA
A2
BA
44
38
ENDCHAR
STARTCHAR ordfeminine
ENCODING 170
SWIDTH 539 0
DWIDTH 6 0
BBX 6 5 1 2
BITMAP
3C
4C
D8
F8
D8
ENDCHAR
STARTCHAR guillemotleft
ENCODING 171
SWIDTH 633 0
DWIDTH 7 0
BBX 7 5 0 1
BITMAP
36
6C
D8
6C
24
ENDCHAR
STARTCHAR logicalnot
ENCODING 172
SWIDTH 687 0
DWIDTH 7 0
BBX 6 3 1 1
BITMAP
FC
04
04
ENDCHAR
STARTCHAR hyphen
ENCODING 173
SWIDTH 289 0
DWIDTH 3 0
BBX 2 1 1 3
BITMAP
C0
ENDCHAR
STARTCHAR registered
ENCODING 174
SWIDTH 691 0
DWIDTH 7 0
BBX 7 7 0 0
BITMAP
38
44
BA
B2
AA
44
38
ENDCHAR
STARTCHAR macron
ENCODING 175
SWIDTH 663 0
DWIDTH 7 0
BBX 3 1 3 7
BITMAP
E0
ENDCHAR
STARTCHAR degree
ENCODING 176
SWIDTH 241 0
DWIDTH 3 0
BBX 4 3 0 5
BITMAP
60
B0
60
ENDCHAR
STARTCHAR plusminus
ENCODING 177
SWIDTH 687 0
DWIDTH 7 0
BBX 7 6 0 0
BITMAP
08
08
7E
10
10
FC
ENDCHAR
STARTCHAR twosuperior
ENCODING 178
SWIDTH 539 0
DWIDTH 6 0
BBX 5 5 1 2
BITMAP
70
18
30
C0
F0
ENDCHAR
STARTCHAR threesuperior
ENCODING 179
SWIDTH 539 0
DWIDTH 6 0
BBX 5 5 1 2
BITMAP
70
18
60
30
E0
ENDCHAR
STARTCHAR acute
ENCODING 180
SWIDTH 663 0
DWIDTH 7 0
BBX 3 2 4 7
BITMAP
60
C0
ENDCHAR
STARTCHAR mu
ENCODING 181
SWIDTH 681 0
DWIDTH 7 0
BBX 7 8 0 -2
BITMAP
36
36
26
6C
7C
6C
C0
C0
ENDCHAR
STARTCHAR paragraph
ENCODING 182
SWIDTH 687 0
DWIDTH 7 0
BBX 6 8 1 -1
BITMAP
7C
F4
E8
68
28
50
50
50
ENDCHAR
STARTCHAR periodcentered
ENCODING 183
SWIDTH 343 0
DWIDTH 7 0
BBX 2 2 3 2
BITMAP
C0
C0
ENDCHAR
STARTCHAR cedilla
ENCODING 184
SWIDTH 663 0
DWIDTH 7 0
BBX 3 2 1 -2
BITMAP
20
C0
ENDCHAR
STARTCHAR onesuperior
ENCODING 185
SWIDTH 539 0
DWIDTH 6 0
BBX 3 5 2 2
BITMAP
E0
60
40
C0
C0
ENDCHAR
STARTCHAR ordmasculine
ENCODING 186
SWIDTH 539 0
DWIDTH 6 0
BBX 6 5 1 2
BITMAP
38
4C
CC
C8
70
ENDCHAR
STARTCHAR guillemotright
ENCODING 187
SWIDTH 633 0
DWIDTH 7 0
BBX 7 5 0 1
BITMAP
48
6C
36
6C
D8
ENDCHAR
STARTCHAR onequarter
ENCODING 188
SWIDTH 1089 0
DWIDTH 11 0
BBX 10 7 1 0
BITMAP
E300
6600
6C00
1980
3580
6FC0
C300
ENDCHAR
STARTCHAR onehalf
ENCODING 189
SWIDTH 1089 0
DWIDTH 11 0
BBX 10 7 1 0
BITMAP
E300
6600
6C00
1B80
31C0
6300
C780
ENDCHAR
STARTCHAR threequarters
ENCODING 190
SWIDTH 1149 0
DWIDTH 12 0
BBX 11 7 1 0
BITMAP
F180
6300
3600
ECC0
1AC0
37E0
6180
ENDCHAR
STARTCHAR questiondown
ENCODING 191
SWIDTH 539 0
DWIDTH 6 0
BBX 6 8 0 -2
BITMAP
0C
0C
00
08
78
C0
C8
70
ENDCHAR
STARTCHAR Agrave
ENCODING 192
SWIDTH 771 0
DWIDTH 8 0
BBX 6 9 1 0
BITMAP
18
0C
00
1C
2C
6C
7C
CC
CC
ENDCHAR
STARTCHAR Aacute
ENCODING 193
SWIDTH 771 0
DWIDTH 8 0
BBX 6 9 1 0
BITMAP
0C
18
00
1C
2C
6C
7C
CC
CC
ENDCHAR
STARTCHAR Acircumflex
ENCODING 194
SWIDTH 771 0
DWIDTH 8 0
BBX 6 9 1 0
BITMAP
18
2C
00
1C
2C
6C
7C
CC
CC
ENDCHAR
STARTCHAR Atilde
ENCODING 195
SWIDTH 771 0
DWIDTH 8 0
BBX 7 9 1 0
BITMAP
1A
2C
00
1C
2C
6C
7C
CC
CC
ENDCHAR
STARTCHAR Adieresis
ENCODING 196
SWIDTH 771 0
DWIDTH 8 0
BBX 6 9 1 0
BITMAP
24
24
00
1C
2C
6C
7C
CC
CC
ENDCHAR
STARTCHAR Aring
ENCODING 197
SWIDTH 771 0
DWIDTH 8 0
BBX 7 9 1 0
BITMAP
0C
16
0C
1C
2C
6C
7C
CC
CC
ENDCHAR
STARTCHAR AE
ENCODING 198
SWIDTH 1004 0
DWIDTH 11 0
BBX 10 7 1 0
BITMAP
0FC0
1600
2600
6780
7C00
CC00
CF80
ENDCHAR
STARTCHAR Ccedilla
ENCODING 199
SWIDTH 737 0
DWIDTH 7 0
BBX 6 9 1 -2
BITMAP
1C
70
60
C0
C0
E0
78
20
C0
ENDCHAR
STARTCHAR Egrave
ENCODING 200
SWIDTH 642 0
DWIDTH 7 0
BBX 6 9 1 0
BITMAP
30
18
00
7C
60
F8
C0
C0
F8
ENDCHAR
STARTCHAR Eacute
ENCODING 201
SWIDTH 642 0
DWIDTH 7 0
BBX 6 9 1 0
BITMAP
0C
18
00
7C
60
F8
C0
C0
F8
ENDCHAR
STARTCHAR Ecircumflex
ENCODING 202
SWIDTH 642 0
DWIDTH 7 0
BBX 6 9 1 0
BITMAP
18
2C
00
7C
60
F8
C0
C0
F8
ENDCHAR
STARTCHAR Edieresis
ENCODING 203
SWIDTH 642 0
DWIDTH 7 0
BBX 6 9 1 0
BITMAP
24
24
00
7C
60
F8
C0
C0
F8
ENDCHAR
STARTCHAR Igrave
ENCODING 204
SWIDTH 361 0
DWIDTH 4 0
BBX 3 9 1 0
BITMAP
C0
60
00
60
60
E0
C0
C0
C0
ENDCHAR
STARTCHAR Iacute
ENCODING 205
SWIDTH 361 0
DWIDTH 4 0
BBX 4 9 1 0
BITMAP
30
60
00
60
60
E0
C0
C0
C0
ENDCHAR
STARTCHAR Icircumflex
ENCODING 206
SWIDTH 361 0
DWIDTH 4 0
BBX 4 9 1 0
BITMAP
60
B0
00
60
60
E0
C0
C0
C0
ENDCHAR
STARTCHAR Idieresis
ENCODING 207
SWIDTH 361 0
DWIDTH 4 0
BBX 4 9 1 0
BITMAP
90
90
00
60
60
E0
C0
C0
C0
ENDCHAR
STARTCHAR Eth
ENCODING 208
SWIDTH 822 0
DWIDTH 8 0
BBX 8 7 0 0
BITMAP
3E
33
33
FB
66
66
78
ENDCHAR
STARTCHAR Ntilde
ENCODING 209
SWIDTH 789 0
DWIDTH 8 0
BBX 7 9 1 0
BITMAP
1A
2C
00
62
72
54
DC
8C
8C
ENDCHAR
STARTCHAR Ograve
ENCODING 210
SWIDTH 855 0
DWIDTH 9 0
BBX 8 9 1 0
BITMAP
18
0C
00
3E
63
C3
C3
C6
7C
ENDCHAR
STARTCHAR Oacute
ENCODING 211
SWIDTH 855 0
DWIDTH 9 0
BBX 8 9 1 0
BITMAP
06
0C
00
3E
63
C3
C3
C6
7C
ENDCHAR
STARTCHAR Ocircumflex
ENCODING 212
SWIDTH 855 0
DWIDTH 9 0
BBX 8 9 1 0
BITMAP
0C
16
00
3E
63
C3
C3
C6
7C
ENDCHAR
STARTCHAR Otilde
ENCODING 213
SWIDTH 855 0
DWIDTH 9 0
BBX 8 9 1 0
BITMAP
1A
2C
00
3E
63
C3
C3
C6
7C
ENDCHAR
STARTCHAR Odieresis
ENCODING 214
SWIDTH 855 0
DWIDTH 9 0
BBX 8 9 1 0
BITMAP
12
12
00
3E
63
C3
C3
C6
7C
ENDCHAR
STARTCHAR multiply
ENCODING 215
SWIDTH 687 0
DWIDTH 7 0
BBX 6 5 1 1
BITMAP
44
28
30
50
88
ENDCHAR
STARTCHAR Oslash
ENCODING 216
SWIDTH 855 0
DWIDTH 9 0
BBX 8 9 1 -1
BITMAP
01
1E
77
6B
CB
D6
EE
78
80
ENDCHAR
STARTCHAR Ugrave
ENCODING 217
SWIDTH 759 0
DWIDTH 8 0
BBX 7 9 1 0
BITMAP
18
0C
00
66
66
CC
CC
C8
70
ENDCHAR
STARTCHAR Uacute
ENCODING 218
SWIDTH 759 0
DWIDTH 8 0
BBX 7 9 1 0
BITMAP
0C
18
00
66
66
CC
CC
C8
70
ENDCHAR
STARTCHAR Ucircumflex
ENCODING 219
SWIDTH 759 0
DWIDTH 8 0
BBX 7 9 1 0
BITMAP
18
2C
00
66
66
CC
CC
C8
70
ENDCHAR
STARTCHAR Udieresis
ENCODING 220
SWIDTH 759 0
DWIDTH 8 0
BBX 7 9 1 0
BITMAP
24
24
00
66
66
CC
CC
C8
70
ENDCHAR
STARTCHAR Yacute
ENCODING 221
SWIDTH 681 0
DWIDTH 7 0
BBX 6 9 2 0
BITMAP
30
58
00
CC
CC
D8
70
60
60
ENDCHAR
STARTCHAR Thorn
ENCODING 222
SWIDTH 645 0
DWIDTH 8 0
BBX 7 7 1 0
BITMAP
60
7C
66
C6
FC
C0
C0
ENDCHAR
STARTCHAR germandbls
ENCODING 223
SWIDTH 708 0
DWIDTH 7 0
BBX 8 10 0 -2
BITMAP
0E
13
33
34
66
66
66
6C
C0
C0
ENDCHAR
STARTCHAR agrave
ENCODING 224
SWIDTH 681 0
DWIDTH 7 0
BBX 6 9 1 0
BITMAP
30
18
00
3C
6C
CC
D8
F8
D8
ENDCHAR
STARTCHAR aacute
ENCODING 225
SWIDTH 681 0
DWIDTH 7 0
BBX 6 9 1 0
BITMAP
0C
18
00
3C
6C
CC
D8
F8
D8
ENDCHAR
STARTCHAR acircumflex
ENCODING 226
SWIDTH 681 0
DWIDTH 7 0
BBX 6 9 1 0
BITMAP
18
2C
00
3C
6C
CC
D8
F8
D8
ENDCHAR
STARTCHAR atilde
ENCODING 227
SWIDTH 681 0
DWIDTH 7 0
BBX 6 9 1 0
BITMAP
34
58
00
3C
6C
CC
D8
F8
D8
ENDCHAR
STARTCHAR adieresis
ENCODING 228
SWIDTH 681 0
DWIDTH 7 0
BBX 6 9 1 0
BITMAP
24
24
00
3C
6C
CC
D8
F8
D8
ENDCHAR
STARTCHAR aring
ENCODING 229
SWIDTH 681 0
DWIDTH 7 0
BBX 6 9 1 0
BITMAP
18
2C
18
3C
6C
CC
D8
F8
D8
ENDCHAR
STARTCHAR ae
ENCODING 230
SWIDTH 987 0
DWIDTH 10 0
BBX 9 6 1 0
BITMAP
7B80
0D80
7D80
CF00
DC00
6700
ENDCHAR
STARTCHAR ccedilla
ENCODING 231
SWIDTH 548 0
DWIDTH 6 0
BBX 5 8 1 -2
BITMAP
38
60
C0
C0
C0
70
20
C0
ENDCHAR
STARTCHAR egrave
ENCODING 232
SWIDTH 612 0
DWIDTH 6 0
BBX 5 9 1 0
BITMAP
60
30
00
38
58
D8
F0
C0
70
ENDCHAR
STARTCHAR eacute
ENCODING 233
SWIDTH 612 0
DWIDTH 6 0
BBX 5 9 1 0
BITMAP
18
30
00
38
58
D8
F0
C0
70
ENDCHAR
STARTCHAR ecircumflex
ENCODING 234
SWIDTH 612 0
DWIDTH 6 0
BBX 5 9 1 0
BITMAP
30
58
00
38
58
D8
F0
C0
70
ENDCHAR
STARTCHAR edieresis
ENCODING 235
SWIDTH 612 0
DWIDTH 6 0
BBX 5 9 1 0
BITMAP
48
48
00
38
58
D8
F0
C0
70
ENDCHAR
STARTCHAR igrave
ENCODING 236
SWIDTH 343 0
DWIDTH 4 0
BBX 3 9 1 0
BITMAP
C0
60
00
60
60
60
C0
C0
C0
ENDCHAR
STARTCHAR iacute
ENCODING 237
SWIDTH 343 0
DWIDTH 4 0
BBX 4 9 1 0
BITMAP
30
60
00
60
60
60
C0
C0
C0
ENDCHAR
STARTCHAR icircumflex
ENCODING 238
SWIDTH 343 0
DWIDTH 4 0
BBX 4 9 1 0
BITMAP
60
B0
00
60
60
60
C0
C0
C0
ENDCHAR
STARTCHAR idieresis
ENCODING 239
SWIDTH 343 0
DWIDTH 4 0
BBX 4 9 1 0
BITMAP
90
90
00
60
60
60
C0
C0
C0
ENDCHAR
STARTCHAR eth
ENCODING 240
SWIDTH 663 0
DWIDTH 7 0
BBX 7 8 1 0
BITMAP
08
1E
0C
7C
CC
CC
D8
70
ENDCHAR
STARTCHAR ntilde
ENCODING 241
SWIDTH 675 0
DWIDTH 7 0
BBX 6 9 1 0
BITMAP
34
58
00
6C
7C
6C
C8
D8
D8
ENDCHAR
STARTCHAR ograve
ENCODING 242
SWIDTH 663 0
DWIDTH 7 0
BBX 6 9 1 0
BITMAP
30
18
00
38
6C
CC
CC
D8
70
ENDCHAR
STARTCHAR oacute
ENCODING 243
SWIDTH 663 0
DWIDTH 7 0
BBX 6 9 1 0
BITMAP
0C
18
00
38
6C
CC
CC
D8
70
ENDCHAR
STARTCHAR ocircumflex
ENCODING 244
SWIDTH 663 0
DWIDTH 7 0
BBX 6 9 1 0
BITMAP
18
2C
00
38
6C
CC
CC
D8
70
ENDCHAR
STARTCHAR otilde
ENCODING 245
SWIDTH 663 0
DWIDTH 7 0
BBX 6 9 1 0
BITMAP
34
58
00
38
6C
CC
CC
D8
70
ENDCHAR
STARTCHAR odieresis
ENCODING 246
SWIDTH 663 0
DWIDTH 7 0
BBX 6 9 1 0
BITMAP
48
48
00
38
6C
CC
CC
D8
70
ENDCHAR
STARTCHAR divide
ENCODING 247
SWIDTH 687 0
DWIDTH 7 0
BBX 6 5 1 1
BITMAP
10
00
FC
00
20
ENDCHAR
STARTCHAR oslash
ENCODING 248
SWIDTH 663 0
DWIDTH 7 0
BBX 8 8 0 -1
BITMAP
01
1E
36
6E
76
6C
78
80
ENDCHAR
STARTCHAR ugrave
ENCODING 249
SWIDTH 675 0
DWIDTH 7 0
BBX 6 9 1 0
BITMAP
30
18
00
6C
6C
4C
D8
F8
D8
ENDCHAR
STARTCHAR uacute
ENCODING 250
SWIDTH 675 0
DWIDTH 7 0
BBX 6 9 1 0
BITMAP
0C
18
00
6C
6C
4C
D8
F8
D8
ENDCHAR
STARTCHAR ucircumflex
ENCODING 251
SWIDTH 675 0
DWIDTH 7 0
BBX 6 9 1 0
BITMAP
18
2C
00
6C
6C
4C
D8
F8
D8
ENDCHAR
STARTCHAR udieresis
ENCODING 252
SWIDTH 675 0
DWIDTH 7 0
BBX 6 9 1 0
BITMAP
24
24
00
6C
6C
4C
D8
F8
D8
ENDCHAR
STARTCHAR yacute
ENCODING 253
SWIDTH 633 0
DWIDTH 7 0
BBX 7 11 0 -2
BITMAP
0C
18
00
66
66
66
6C
68
70
60
C0
ENDCHAR
STARTCHAR thorn
ENCODING 254
SWIDTH 681 0
DWIDTH 7 0
BBX 7 9 0 -2
BITMAP
30
36
3E
66
66
6C
78
C0
C0
ENDCHAR
STARTCHAR ydieresis
ENCODING 255
SWIDTH 633 0
DWIDTH 7 0
BBX 7 11 0 -2
BITMAP
24
24
00
66
66
66
6C
68
70
60
C0
ENDCHAR
STARTCHAR Amacron
ENCODING 256
SWIDTH 771 0
DWIDTH 8 0
BBX 6 9 1 0
BITMAP
1C
00
0C
1C
2C
6C
7C
CC
CC
ENDCHAR
STARTCHAR amacron
ENCODING 257
SWIDTH 681 0
DWIDTH 7 0
BBX 6 8 1 0
BITMAP
38
00
3C
6C
CC
D8
F8
D8
ENDCHAR
STARTCHAR Abreve
ENCODING 258
SWIDTH 771 0
DWIDTH 8 0
BBX 6 10 1 0
BITMAP
24
18
00
0C
1C
2C
6C
7C
CC
CC
ENDCHAR
STARTCHAR abreve
ENCODING 259
SWIDTH 681 0
DWIDTH 7 0
BBX 6 9 1 0
BITMAP
24
18
00
3C
6C
CC
D8
F8
D8
ENDCHAR
STARTCHAR Aogonek
ENCODING 260
SWIDTH 771 0
DWIDTH 8 0
BBX 6 9 1 -2
BITMAP
0C
1C
2C
6C
7C
CC
CC
20
18
ENDCHAR
STARTCHAR aogonek
ENCODING 261
SWIDTH 681 0
DWIDTH 7 0
BBX 6 8 1 -2
BITMAP
3C
6C
CC
D8
F8
D8
20
18
ENDCHAR
STARTCHAR Cacute
ENCODING 262
SWIDTH 737 0
DWIDTH 7 0
BBX 6 10 1 0
BITMAP
18
30
00
1C
70
60
C0
C0
E0
78
ENDCHAR
STARTCHAR cacute
ENCODING 263
SWIDTH 548 0
DWIDTH 6 0
BBX 5 9 1 0
BITMAP
18
30
00
38
60
C0
C0
C0
70
ENDCHAR
STARTCHAR Ccircumflex
ENCODING 264
SWIDTH 737 0
DWIDTH 7 0
BBX 6 10 1 0
BITMAP
30
58
00
1C
70
60
C0
C0
E0
78
ENDCHAR
STARTCHAR ccircumflex
ENCODING 265
SWIDTH 548 0
DWIDTH 6 0
BBX 5 9 1 0
BITMAP
30
58
00
38
60
C0
C0
C0
70
ENDCHAR
STARTCHAR Cdotaccent
ENCODING 266
SWIDTH 737 0
DWIDTH 7 0
BBX 6 10 1 0
BITMAP
30
30
00
1C
70
60
C0
C0
E0
78
ENDCHAR
STARTCHAR cdotaccent
ENCODING 267
SWIDTH 548 0
DWIDTH 6 0
BBX 5 9 1 0
BITMAP
30
30
00
38
60
C0
C0
C0
70
ENDCHAR
STARTCHAR Ccaron
ENCODING 268
SWIDTH 737 0
DWIDTH 7 0
BBX 6 10 1 0
BITMAP
58
30
00
1C
70
60
C0
C0
E0
78
ENDCHAR
STARTCHAR ccaron
ENCODING 269
SWIDTH 548 0
DWIDTH 6 0
BBX 5 9 1 0
BITMAP
58
30
00
38
60
C0
C0
C0
70
ENDCHAR
STARTCHAR Dcaron
ENCODING 270
SWIDTH 822 0
DWIDTH 8 0
BBX 7 10 1 0
BITMAP
2C
18
00
7C
66
66
E6
CC
CC
F0
ENDCHAR
STARTCHAR dcaron
ENCODING 271
SWIDTH 912 0
DWIDTH 10 0
BBX 10 8 1 0
BITMAP
06C0
06C0
3D80
6C00
CC00
D800
F800
D800
ENDCHAR
STARTCHAR Dcroat
ENCODING 272
SWIDTH 822 0
DWIDTH 8 0
BBX 8 7 0 0
BITMAP
3E
33
33
FB
66
66
78
ENDCHAR
STARTCHAR dcroat
ENCODING 273
SWIDTH 681 0
DWIDTH 7 0
BBX 7 8 1 0
BITMAP
06
0E
3C
6C
CC
D8
F8
D8
ENDCHAR
STARTCHAR Emacron
ENCODING 274
SWIDTH 642 0
DWIDTH 7 0
BBX 6 9 1 0
BITMAP
38
00
7C
60
60
F8
C0
C0
F8
ENDCHAR
STARTCHAR emacron
ENCODING 275
SWIDTH 612 0
DWIDTH 6 0
BBX 5 8 1 0
BITMAP
38
00
38
58
D8
F0
C0
70
ENDCHAR
STARTCHAR Ebreve
ENCODING 276
SWIDTH 642 0
DWIDTH 7 0
BBX 6 10 1 0
BITMAP
48
30
00
7C
60
60
F8
C0
C0
F8
ENDCHAR
STARTCHAR ebreve
ENCODING 277
SWIDTH 612 0
DWIDTH 6 0
BBX 5 9 1 0
BITMAP
48
30
00
38
58
D8
F0
C0
70
ENDCHAR
STARTCHAR Edotaccent
ENCODING 278
SWIDTH 642 0
DWIDTH 7 0
BBX 6 10 1 0
BITMAP
30
30
00
7C
60
60
F8
C0
C0
F8
ENDCHAR
STARTCHAR edotaccent
ENCODING 279
SWIDTH 612 0
DWIDTH 6 0
BBX 5 9 1 0
BITMAP
30
30
00
38
58
D8
F0
C0
70
ENDCHAR
STARTCHAR Eogonek
ENCODING 280
SWIDTH 642 0
DWIDTH 7 0
BBX 6 9 1 -2
BITMAP
7C
60
60
F8
C0
C0
F8
20
18
ENDCHAR
STARTCHAR eogonek
ENCODING 281
SWIDTH 612 0
DWIDTH 6 0
BBX 5 8 1 -2
BITMAP
38
58
D8
F0
C0
70
40
30
ENDCHAR
STARTCHAR Ecaron
ENCODING 282
SWIDTH 642 0
DWIDTH 7 0
BBX 6 10 1 0
BITMAP
58
30
00
7C
60
60
F8
C0
C0
F8
ENDCHAR
STARTCHAR ecaron
ENCODING 283
SWIDTH 612 0
DWIDTH 6 0
BBX 5 9 1 0
BITMAP
58
30
00
38
58
D8
F0
C0
70
ENDCHAR
STARTCHAR Gcircumflex
ENCODING 284
SWIDTH 755 0
DWIDTH 8 0
BBX 7 10 1 0
BITMAP
18
2C
00
1E
70
60
CC
CC
EC
78
ENDCHAR
STARTCHAR gcircumflex
ENCODING 285
SWIDTH 674 0
DWIDTH 7 0
BBX 6 11 1 -2
BITMAP
30
58
00
3C
6C
CC
D8
F8
D8
18
F0
ENDCHAR
STARTCHAR Gbreve
ENCODING 286
SWIDTH 755 0
DWIDTH 8 0
BBX 7 10 1 0
BITMAP
24
18
00
1E
70
60
CC
CC
EC
78
ENDCHAR
STARTCHAR gbreve
ENCODING 287
SWIDTH 674 0
DWIDTH 7 0
BBX 6 11 1 -2
BITMAP
48
30
00
3C
6C
CC
D8
F8
D8
18
F0
ENDCHAR
STARTCHAR Gdotaccent
ENCODING 288
SWIDTH 755 0
DWIDTH 8 0
BBX 7 10 1 0
BITMAP
18
18
00
1E
70
60
CC
CC
EC
78
ENDCHAR
STARTCHAR gdotaccent
ENCODING 289
SWIDTH 674 0
DWIDTH 7 0
BBX 6 11 1 -2
BITMAP
30
30
00
3C
6C
CC
D8
F8
D8
18
F0
ENDCHAR
STARTCHAR Gcommaaccent
ENCODING 290
SWIDTH 755 0
DWIDTH 8 0
BBX 7 11 1 -4
BITMAP
1E
70
60
CC
CC
EC
78
00
30
30
60
ENDCHAR
STARTCHAR gcommaaccent
ENCODING 291
SWIDTH 674 0
DWIDTH 7 0
BBX 6 12 1 -2
BITMAP
18
30
30
00
3C
6C
CC
D8
F8
D8
18
F0
ENDCHAR
STARTCHAR Hcircumflex
ENCODING 292
SWIDTH 813 0
DWIDTH 8 0
BBX 7 10 1 0
BITMAP
18
2C
00
66
66
66
FE
CC
CC
CC
ENDCHAR
STARTCHAR hcircumflex
ENCODING 293
SWIDTH 675 0
DWIDTH 7 0
BBX 6 11 1 0
BITMAP
30
58
00
30
30
6C
7C
6C
C8
D8
D8
ENDCHAR
STARTCHAR Hbar
ENCODING 294
SWIDTH 813 0
DWIDTH 8 0
BBX 7 7 1 0
BITMAP
FE
66
66
FE
CC
CC
CC
ENDCHAR
STARTCHAR hbar
ENCODING 295
SWIDTH 675 0
DWIDTH 7 0
BBX 6 8 1 0
BITMAP
30
70
6C
7C
6C
C8
D8
D8
ENDCHAR
STARTCHAR Itilde
ENCODING 296
SWIDTH 361 0
DWIDTH 4 0
BBX 5 10 1 0
BITMAP
68
B0
00
60
60
60
E0
C0
C0
C0
ENDCHAR
STARTCHAR itilde
ENCODING 297
SWIDTH 343 0
DWIDTH 4 0
BBX 5 9 1 0
BITMAP
68
B0
00
60
60
60
C0
C0
C0
ENDCHAR
STARTCHAR Imacron
ENCODING 298
SWIDTH 361 0
DWIDTH 4 0
BBX 3 9 1 0
BITMAP
E0
00
60
60
60
E0
C0
C0
C0
ENDCHAR
STARTCHAR imacron
ENCODING 299
SWIDTH 343 0
DWIDTH 4 0
BBX 3 8 1 0
BITMAP
E0
00
60
60
60
C0
C0
C0
ENDCHAR
STARTCHAR Ibreve
ENCODING 300
SWIDTH 361 0
DWIDTH 4 0
BBX 4 10 1 0
BITMAP
90
60
00
60
60
60
E0
C0
C0
C0
ENDCHAR
STARTCHAR ibreve
ENCODING 301
SWIDTH 343 0
DWIDTH 4 0
BBX 4 9 1 0
BITMAP
90
60
00
60
60
60
C0
C0
C0
ENDCHAR
STARTCHAR Iogonek
ENCODING 302
SWIDTH 361 0
DWIDTH 4 0
BBX 3 9 1 -2
BITMAP
60
60
60
E0
C0
C0
C0
80
60
ENDCHAR
STARTCHAR iogonek
ENCODING 303
SWIDTH 343 0
DWIDTH 4 0
BBX 4 10 1 -2
BITMAP
30
00
60
60
60
C0
C0
C0
40
30
ENDCHAR
STARTCHAR Idotaccent
ENCODING 304
SWIDTH 361 0
DWIDTH 4 0
BBX 3 10 1 0
BITMAP
60
60
00
60
60
60
E0
C0
C0
C0
ENDCHAR
STARTCHAR dotlessi
ENCODING 305
SWIDTH 343 0
DWIDTH 4 0
BBX 3 6 1 0
BITMAP
60
60
60
C0
C0
C0
ENDCHAR
STARTCHAR IJ
ENCODING 306
SWIDTH 845 0
DWIDTH 9 0
BBX 8 8 1 -1
BITMAP
63
63
63
E7
C6
C6
CE
1C
ENDCHAR
STARTCHAR ij
ENCODING 307
SWIDTH 733 0
DWIDTH 8 0
BBX 8 10 1 -2
BITMAP
33
00
66
66
66
CC
CC
CC
18
38
ENDCHAR
STARTCHAR Jcircumflex
ENCODING 308
SWIDTH 502 0
DWIDTH 5 0
BBX 5 11 0 -1
BITMAP
30
58
00
18
18
18
38
30
30
70
E0
ENDCHAR
STARTCHAR jcircumflex
ENCODING 309
SWIDTH 407 0
DWIDTH 4 0
BBX 6 11 -1 -2
BITMAP
18
2C
00
18
18
18
30
30
30
60
E0
ENDCHAR
STARTCHAR Kcommaaccent
ENCODING 310
SWIDTH 753 0
DWIDTH 8 0
BBX 7 11 1 -4
BITMAP
66
6C
78
F0
D8
CC
C6
00
18
18
30
ENDCHAR
STARTCHAR kcommaaccent
ENCODING 311
SWIDTH 666 0
DWIDTH 7 0
BBX 7 12 1 -4
BITMAP
30
30
66
6C
78
F0
D8
CC
00
30
30
60
ENDCHAR
STARTCHAR kgreenlandic
ENCODING 312
SWIDTH 666 0
DWIDTH 7 0
BBX 7 6 1 0
BITMAP
66
6C
78
F0
D8
CC
ENDCHAR
STARTCHAR Lacute
ENCODING 313
SWIDTH 623 0
DWIDTH 6 0
BBX 5 10 1 0
BITMAP
30
60
00
60
60
60
E0
C0
C0
F8
ENDCHAR
STARTCHAR lacute
ENCODING 314
SWIDTH 343 0
DWIDTH 4 0
BBX 4 11 1 0
BITMAP
30
60
00
30
30
60
60
60
C0
C0
C0
ENDCHAR
STARTCHAR Lcommaaccent
ENCODING 315
SWIDTH 623 0
DWIDTH 6 0
BBX 5 11 1 -4
BITMAP
60
60
60
E0
C0
C0
F8
00
60
60
C0
ENDCHAR
STARTCHAR lcommaaccent
ENCODING 316
SWIDTH 343 0
DWIDTH 4 0
BBX 4 12 1 -4
BITMAP
30
30
60
60
60
C0
C0
C0
00
60
60
C0
ENDCHAR
STARTCHAR Lcaron
ENCODING 317
SWIDTH 857 0
DWIDTH 9 0
BBX 9 8 1 0
BITMAP
0180
6180
6300
6000
E000
C000
C000
F800
ENDCHAR
STARTCHAR lcaron
ENCODING 318
SWIDTH 591 0
DWIDTH 7 0
BBX 7 8 1 0
BITMAP
36
36
6C
60
60
C0
C0
C0
ENDCHAR
STARTCHAR Ldot
ENCODING 319
SWIDTH 935 0
DWIDTH 13 0
BBX 10 7 1 0
BITMAP
6000
6000
6000
E0C0
C0C0
C000
F800
ENDCHAR
STARTCHAR ldot
ENCODING 320
SWIDTH 669 0
DWIDTH 11 0
BBX 8 8 1 0
BITMAP
30
30
60
60
63
C3
C0
C0
ENDCHAR
STARTCHAR Lslash
ENCODING 321
SWIDTH 623 0
DWIDTH 6 0
BBX 6 7 0 0
BITMAP
30
30
3C
F0
60
60
7C
ENDCHAR
STARTCHAR lslash
ENCODING 322
SWIDTH 343 0
DWIDTH 5 0
BBX 6 8 0 0
BITMAP
18
18
30
3C
F0
20
60
60
ENDCHAR
STARTCHAR Nacute
ENCODING 323
SWIDTH 789 0
DWIDTH 8 0
BBX 7 10 1 0
BITMAP
18
30
00
62
72
72
5C
DC
8C
8C
ENDCHAR
STARTCHAR nacute
ENCODING 324
SWIDTH 675 0
DWIDTH 7 0
BBX 6 9 1 0
BITMAP
18
30
00
6C
7C
6C
C8
D8
D8
ENDCHAR
STARTCHAR Ncommaaccent
ENCODING 325
SWIDTH 789 0
DWIDTH 8 0
BBX 7 11 1 -4
BITMAP
62
72
72
5C
DC
8C
8C
00
18
18
30
ENDCHAR
STARTCHAR ncommaaccent
ENCODING 326
SWIDTH 675 0
DWIDTH 7 0
BBX 6 10 1 -4
BITMAP
6C
7C
6C
C8
D8
D8
00
30
30
60
ENDCHAR
STARTCHAR Ncaron
ENCODING 327
SWIDTH 789 0
DWIDTH 8 0
BBX 7 10 1 0
BITMAP
2C
18
00
62
72
72
5C
DC
8C
8C
ENDCHAR
STARTCHAR ncaron
ENCODING 328
SWIDTH 675 0
DWIDTH 7 0
BBX 6 9 1 0
BITMAP
58
30
00
6C
7C
6C
C8
D8
D8
ENDCHAR
STARTCHAR napostrophe
ENCODING 329
SWIDTH 927 0
DWIDTH 10 0
BBX 9 8 1 0
BITMAP
6000
6000
CD80
0F80
0D80
1900
1B00
1B00
ENDCHAR
STARTCHAR Eng
ENCODING 330
SWIDTH 789 0
DWIDTH 8 0
BBX 7 9 1 -2
BITMAP
62
72
72
5C
DC
8C
8C
18
38
ENDCHAR
STARTCHAR eng
ENCODING 331
SWIDTH 675 0
DWIDTH 7 0
BBX 6 8 1 -2
BITMAP
6C
7C
6C
D8
D8
D8
30
70
ENDCHAR
STARTCHAR Omacron
ENCODING 332
SWIDTH 855 0
DWIDTH 9 0
BBX 8 9 1 0
BITMAP
1C
00
1E
73
63
C3
C6
CE
78
ENDCHAR
STARTCHAR omacron
ENCODING 333
SWIDTH 663 0
DWIDTH 7 0
BBX 6 8 1 0
BITMAP
38
00
38
6C
CC
CC
D8
70
ENDCHAR
STARTCHAR Obreve
ENCODING 334
SWIDTH 855 0
DWIDTH 9 0
BBX 8 10 1 0
BITMAP
24
18
00
1E
73
63
C3
C6
CE
78
ENDCHAR
STARTCHAR obreve
ENCODING 335
SWIDTH 663 0
DWIDTH 7 0
BBX 6 9 1 0
BITMAP
48
30
00
38
6C
CC
CC
D8
70
ENDCHAR
STARTCHAR Ohungarumlaut
ENCODING 336
SWIDTH 855 0
DWIDTH 9 0
BBX 8 10 1 0
BITMAP
36
24
00
1E
73
63
C3
C6
CE
78
ENDCHAR
STARTCHAR ohungarumlaut
ENCODING 337
SWIDTH 663 0
DWIDTH 7 0
BBX 6 9 1 0
BITMAP
6C
48
00
38
6C
CC
CC
D8
70
ENDCHAR
STARTCHAR OE
ENCODING 338
SWIDTH 1103 0
DWIDTH 11 0
BBX 10 7 1 0
BITMAP
1FC0
6600
6600
C780
CC00
CC00
7F80
ENDCHAR
STARTCHAR oe
ENCODING 339
SWIDTH 1004 0
DWIDTH 10 0
BBX 9 6 1 0
BITMAP
3B80
6D80
CD80
CF00
DC00
7700
ENDCHAR
STARTCHAR Racute
ENCODING 340
SWIDTH 708 0
DWIDTH 8 0
BBX 7 10 1 0
BITMAP
18
30
00
7C
66
66
FC
D8
CC
CC
ENDCHAR
STARTCHAR racute
ENCODING 341
SWIDTH 542 0
DWIDTH 6 0
BBX 5 9 1 0
BITMAP
18
30
00
68
78
60
C0
C0
C0
ENDCHAR
STARTCHAR Rcommaaccent
ENCODING 342
SWIDTH 708 0
DWIDTH 8 0
BBX 7 11 1 -4
BITMAP
7C
66
66
FC
D8
CC
CC
00
30
30
60
ENDCHAR
STARTCHAR rcommaaccent
ENCODING 343
SWIDTH 542 0
DWIDTH 6 0
BBX 5 10 1 -4
BITMAP
68
78
60
C0
C0
C0
00
60
60
C0
ENDCHAR
STARTCHAR Rcaron
ENCODING 344
SWIDTH 708 0
DWIDTH 8 0
BBX 7 10 1 0
BITMAP
2C
18
00
7C
66
66
FC
D8
CC
CC
ENDCHAR
STARTCHAR rcaron
ENCODING 345
SWIDTH 542 0
DWIDTH 6 0
BBX 5 9 1 0
BITMAP
58
30
00
68
78
60
C0
C0
C0
ENDCHAR
STARTCHAR Sacute
ENCODING 346
SWIDTH 639 0
DWIDTH 7 0
BBX 6 10 1 0
BITMAP
18
30
00
3C
60
60
30
18
18
F0
ENDCHAR
STARTCHAR sacute
ENCODING 347
SWIDTH 527 0
DWIDTH 6 0
BBX 6 9 0 0
BITMAP
18
30
00
3C
60
70
38
18
F0
ENDCHAR
STARTCHAR Scircumflex
ENCODING 348
SWIDTH 639 0
DWIDTH 7 0
BBX 6 10 1 0
BITMAP
30
58
00
3C
60
60
30
18
18
F0
ENDCHAR
STARTCHAR scircumflex
ENCODING 349
SWIDTH 527 0
DWIDTH 6 0
BBX 6 9 0 0
BITMAP
30
58
00
3C
60
70
38
18
F0
ENDCHAR
STARTCHAR Scedilla
ENCODING 350
SWIDTH 639 0
DWIDTH 7 0
BBX 6 9 1 -2
BITMAP
3C
60
60
30
18
18
F0
10
60
ENDCHAR
STARTCHAR scedilla
ENCODING 351
SWIDTH 527 0
DWIDTH 6 0
BBX 6 8 0 -2
BITMAP
3C
60
70
38
18
F0
10
60
ENDCHAR
STARTCHAR Scaron
ENCODING 352
SWIDTH 639 0
DWIDTH 7 0
BBX 6 9 1 0
BITMAP
2C
18
00
3C
60
70
38
18
F0
ENDCHAR
STARTCHAR scaron
ENCODING 353
SWIDTH 527 0
DWIDTH 6 0
BBX 6 9 0 0
BITMAP
2C
18
00
3C
60
70
38
18
F0
ENDCHAR
STARTCHAR Tcommaaccent
ENCODING 354
SWIDTH 747 0
DWIDTH 8 0
BBX 6 9 2 -2
BITMAP
FC
30
30
70
60
60
60
20
C0
ENDCHAR
STARTCHAR tcommaaccent
ENCODING 355
SWIDTH 437 0
DWIDTH 5 0
BBX 5 9 1 -2
BITMAP
30
F8
60
60
C0
C0
E0
20
C0
ENDCHAR
STARTCHAR Tcaron
ENCODING 356
SWIDTH 747 0
DWIDTH 8 0
BBX 6 10 2 0
BITMAP
58
30
00
FC
30
30
70
60
60
60
ENDCHAR
STARTCHAR tcaron
ENCODING 357
SWIDTH 680 0
DWIDTH 8 0
BBX 8 8 1 0
BITMAP
03
33
FE
60
60
C0
C0
E0
ENDCHAR
STARTCHAR Tbar
ENCODING 358
SWIDTH 747 0
DWIDTH 8 0
BBX 6 7 2 0
BITMAP
FC
30
30
78
60
60
60
ENDCHAR
STARTCHAR tbar
ENCODING 359
SWIDTH 437 0
DWIDTH 5 0
BBX 5 7 1 0
BITMAP
30
F8
60
70
C0
C0
E0
ENDCHAR
STARTCHAR Utilde
ENCODING 360
SWIDTH 759 0
DWIDTH 8 0
BBX 7 10 1 0
BITMAP
1A
2C
00
66
66
66
CC
CC
C8
70
ENDCHAR
STARTCHAR utilde
ENCODING 361
SWIDTH 675 0
DWIDTH 7 0
BBX 6 9 1 0
BITMAP
34
58
00
6C
6C
4C
D8
F8
D8
ENDCHAR
STARTCHAR Umacron
ENCODING 362
SWIDTH 759 0
DWIDTH 8 0
BBX 7 9 1 0
BITMAP
38
00
66
66
66
CC
CC
C8
70
ENDCHAR
STARTCHAR umacron
ENCODING 363
SWIDTH 675 0
DWIDTH 7 0
BBX 6 8 1 0
BITMAP
38
00
6C
6C
4C
D8
F8
D8
ENDCHAR
STARTCHAR Ubreve
ENCODING 364
SWIDTH 759 0
DWIDTH 8 0
BBX 7 10 1 0
BITMAP
24
18
00
66
66
66
CC
CC
C8
70
ENDCHAR
STARTCHAR ubreve
ENCODING 365
SWIDTH 675 0
DWIDTH 7 0
BBX 6 9 1 0
BITMAP
48
30
00
6C
6C
4C
D8
F8
D8
ENDCHAR
STARTCHAR Uring
ENCODING 366
SWIDTH 759 0
DWIDTH 8 0
BBX 7 11 1 0
BITMAP
18
2C
18
00
66
66
66
CC
CC
C8
70
ENDCHAR
STARTCHAR uring
ENCODING 367
SWIDTH 675 0
DWIDTH 7 0
BBX 6 10 1 0
BITMAP
30
58
30
00
6C
6C
4C
D8
F8
D8
ENDCHAR
STARTCHAR Uhungarumlaut
ENCODING 368
SWIDTH 759 0
DWIDTH 8 0
BBX 7 10 1 0
BITMAP
36
24
00
66
66
66
CC
CC
C8
70
ENDCHAR
STARTCHAR uhungarumlaut
ENCODING 369
SWIDTH 675 0
DWIDTH 7 0
BBX 6 9 1 0
BITMAP
6C
48
00
6C
6C
4C
D8
F8
D8
ENDCHAR
STARTCHAR Uogonek
ENCODING 370
SWIDTH 759 0
DWIDTH 8 0
BBX 7 9 1 -2
BITMAP
66
66
66
CC
CC
C8
70
20
18
ENDCHAR
STARTCHAR uogonek
ENCODING 371
SWIDTH 675 0
DWIDTH 7 0
BBX 6 8 1 -2
BITMAP
6C
6C
4C
D8
F8
D8
20
18
ENDCHAR
STARTCHAR Wcircumflex
ENCODING 372
SWIDTH 991 0
DWIDTH 11 0
BBX 10 10 2 0
BITMAP
0C00
1600
0000
C0C0
CCC0
CC80
DD80
DD00
EE00
CC00
ENDCHAR
STARTCHAR wcircumflex
ENCODING 373
SWIDTH 878 0
DWIDTH 9 0
BBX 8 9 1 0
BITMAP
18
2C
00
C3
DB
DB
DA
FC
D8
ENDCHAR
STARTCHAR Ycircumflex
ENCODING 374
SWIDTH 681 0
DWIDTH 7 0
BBX 6 10 2 0
BITMAP
30
58
00
CC
CC
D8
70
60
60
60
ENDCHAR
STARTCHAR ycircumflex
ENCODING 375
SWIDTH 633 0
DWIDTH 7 0
BBX 7 11 0 -2
BITMAP
18
2C
00
66
66
66
6C
68
70
60
C0
ENDCHAR
STARTCHAR Ydieresis
ENCODING 376
SWIDTH 681 0
DWIDTH 7 0
BBX 6 9 2 0
BITMAP
48
48
00
CC
CC
D8
70
60
60
ENDCHAR
STARTCHAR Zacute
ENCODING 377
SWIDTH 687 0
DWIDTH 7 0
BBX 6 10 1 0
BITMAP
18
30
00
7C
1C
18
30
60
E0
F8
ENDCHAR
STARTCHAR zacute
ENCODING 378
SWIDTH 630 0
DWIDTH 7 0
BBX 6 9 1 0
BITMAP
18
30
00
7C
0C
38
70
C0
F8
ENDCHAR
STARTCHAR Zdotaccent
ENCODING 379
SWIDTH 687 0
DWIDTH 7 0
BBX 6 10 1 0
BITMAP
18
18
00
7C
1C
18
30
60
E0
F8
ENDCHAR
STARTCHAR zdotaccent
ENCODING 380
SWIDTH 630 0
DWIDTH 7 0
BBX 6 9 1 0
BITMAP
18
18
00
7C
0C
38
70
C0
F8
ENDCHAR
STARTCHAR Zcaron
ENCODING 381
SWIDTH 687 0
DWIDTH 7 0
BBX 6 9 1 0
BITMAP
2C
18
00
7C
18
30
60
C0
F8
ENDCHAR
STARTCHAR zcaron
ENCODING 382
SWIDTH 630 0
DWIDTH 7 0
BBX 6 9 1 0
BITMAP
2C
18
00
7C
0C
38
70
C0
F8
ENDCHAR
STARTCHAR uni0186
ENCODING 390
SWIDTH 737 0
DWIDTH 7 0
BBX 6 7 1 0
BITMAP
78
1C
0C
0C
18
38
E0
ENDCHAR
STARTCHAR uni0189
ENCODING 393
SWIDTH 822 0
DWIDTH 8 0
BBX 8 7 0 0
BITMAP
3E
33
33
FB
66
66
78
ENDCHAR
STARTCHAR uni018E
ENCODING 398
SWIDTH 642 0
DWIDTH 7 0
BBX 6 7 1 0
BITMAP
7C
0C
0C
7C
18
18
F8
ENDCHAR
STARTCHAR florin
ENCODING 402
SWIDTH 687 0
DWIDTH 7 0
BBX 6 8 1 -1
BITMAP
1C
30
60
F8
60
60
C0
C0
ENDCHAR
STARTCHAR uni0197
ENCODING 407
SWIDTH 361 0
DWIDTH 4 0
BBX 3 7 1 0
BITMAP
60
60
60
E0
C0
C0
C0
ENDCHAR
STARTCHAR uni019A
ENCODING 410
SWIDTH 343 0
DWIDTH 4 0
BBX 4 8 1 0
BITMAP
30
30
60
70
60
C0
C0
C0
ENDCHAR
STARTCHAR uni019D
ENCODING 413
SWIDTH 789 0
DWIDTH 8 0
BBX 9 9 -1 -2
BITMAP
1880
1C80
1C80
1700
3700
3300
3300
6000
E000
ENDCHAR
STARTCHAR uni019F
ENCODING 415
SWIDTH 855 0
DWIDTH 9 0
BBX 8 7 1 0
BITMAP
1E
73
63
FF
C6
CE
78
ENDCHAR
STARTCHAR Ohorn
ENCODING 416
SWIDTH 855 0
DWIDTH 9 0
BBX 11 7 1 0
BITMAP
1E60
7360
63C0
C300
C600
CE00
7800
ENDCHAR
STARTCHAR ohorn
ENCODING 417
SWIDTH 663 0
DWIDTH 7 0
BBX 9 6 1 0
BITMAP
3980
6D80
CF00
CC00
D800
7000
ENDCHAR
STARTCHAR Uhorn
ENCODING 431
SWIDTH 759 0
DWIDTH 8 0
BBX 10 7 1 0
BITMAP
66C0
66C0
6780
CC00
CC00
C800
7000
ENDCHAR
STARTCHAR uhorn
ENCODING 432
SWIDTH 675 0
DWIDTH 7 0
BBX 9 6 1 0
BITMAP
6D80
6D80
4F00
D800
F800
D800
ENDCHAR
STARTCHAR uni01B5
ENCODING 437
SWIDTH 687 0
DWIDTH 7 0
BBX 6 7 1 0
BITMAP
7C
1C
18
38
60
E0
F8
ENDCHAR
STARTCHAR uni01B6
ENCODING 438
SWIDTH 630 0
DWIDTH 7 0
BBX 6 6 1 0
BITMAP
7C
0C
38
70
C0
F8
ENDCHAR
STARTCHAR uni01BB
ENCODING 443
SWIDTH 687 0
DWIDTH 7 0
BBX 6 7 1 0
BITMAP
38
4C
0C
FC
60
F8
F8
ENDCHAR
STARTCHAR uni01BC
ENCODING 444
SWIDTH 687 0
DWIDTH 7 0
BBX 6 7 1 0
BITMAP
3C
7C
40
70
18
98
70
ENDCHAR
STARTCHAR uni01C0
ENCODING 448
SWIDTH 259 0
DWIDTH 4 0
BBX 4 9 1 -1
BITMAP
30
30
20
60
60
60
40
C0
C0
ENDCHAR
STARTCHAR uni01C2
ENCODING 450
SWIDTH 687 0
DWIDTH 7 0
BBX 6 9 1 -1
BITMAP
18
18
10
7C
30
F8
20
60
60
ENDCHAR
STARTCHAR uni01C3
ENCODING 451
SWIDTH 343 0
DWIDTH 4 0
BBX 4 7 1 0
BITMAP
30
30
60
60
00
C0
C0
ENDCHAR
STARTCHAR uni01CD
ENCODING 461
SWIDTH 771 0
DWIDTH 8 0
BBX 6 10 1 0
BITMAP
2C
18
00
0C
1C
2C
6C
7C
CC
CC
ENDCHAR
STARTCHAR uni01CE
ENCODING 462
SWIDTH 681 0
DWIDTH 7 0
BBX 6 9 1 0
BITMAP
2C
18
00
3C
6C
CC
D8
F8
D8
ENDCHAR
STARTCHAR uni01CF
ENCODING 463
SWIDTH 361 0
DWIDTH 4 0
BBX 4 10 1 0
BITMAP
B0
60
00
60
60
60
E0
C0
C0
C0
ENDCHAR
STARTCHAR uni01D0
ENCODING 464
SWIDTH 343 0
DWIDTH 4 0
BBX 4 9 1 0
BITMAP
B0
60
00
60
60
60
C0
C0
C0
ENDCHAR
STARTCHAR uni01D1
ENCODING 465
SWIDTH 855 0
DWIDTH 9 0
BBX 8 10 1 0
BITMAP
2C
18
00
1E
73
63
C3
C6
CE
78
ENDCHAR
STARTCHAR uni01D2
ENCODING 466
SWIDTH 663 0
DWIDTH 7 0
BBX 6 9 1 0
BITMAP
58
30
00
38
6C
CC
CC
D8
70
ENDCHAR
STARTCHAR uni01D3
ENCODING 467
SWIDTH 759 0
DWIDTH 8 0
BBX 7 10 1 0
BITMAP
2C
18
00
66
66
66
CC
CC
C8
70
ENDCHAR
STARTCHAR uni01D4
ENCODING 468
SWIDTH 675 0
DWIDTH 7 0
BBX 6 9 1 0
BITMAP
58
30
00
6C
6C
4C
D8
F8
D8
ENDCHAR
STARTCHAR uni01D5
ENCODING 469
SWIDTH 759 0
DWIDTH 8 0
BBX 7 11 1 0
BITMAP
38
00
24
24
00
66
66
CC
CC
C8
70
ENDCHAR
STARTCHAR uni01D6
ENCODING 470
SWIDTH 675 0
DWIDTH 7 0
BBX 6 11 1 0
BITMAP
38
00
24
24
00
6C
6C
4C
D8
F8
D8
ENDCHAR
STARTCHAR uni01D7
ENCODING 471
SWIDTH 759 0
DWIDTH 8 0
BBX 7 12 1 0
BITMAP
0C
18
00
24
24
00
66
66
CC
CC
C8
70
ENDCHAR
STARTCHAR uni01D8
ENCODING 472
SWIDTH 675 0
DWIDTH 7 0
BBX 6 12 1 0
BITMAP
0C
18
00
24
24
00
6C
6C
4C
D8
F8
D8
ENDCHAR
STARTCHAR uni01D9
ENCODING 473
SWIDTH 759 0
DWIDTH 8 0
BBX 7 12 1 0
BITMAP
2C
18
00
24
24
00
66
66
CC
CC
C8
70
ENDCHAR
STARTCHAR uni01DA
ENCODING 474
SWIDTH 675 0
DWIDTH 7 0
BBX 6 12 1 0
BITMAP
2C
18
00
24
24
00
6C
6C
4C
D8
F8
D8
ENDCHAR
STARTCHAR uni01DB
ENCODING 475
SWIDTH 759 0
DWIDTH 8 0
BBX 7 12 1 0
BITMAP
30
18
00
24
24
00
66
66
CC
CC
C8
70
ENDCHAR
STARTCHAR uni01DC
ENCODING 476
SWIDTH 675 0
DWIDTH 7 0
BBX 6 12 1 0
BITMAP
30
18
00
24
24
00
6C
6C
4C
D8
F8
D8
ENDCHAR
STARTCHAR uni01DD
ENCODING 477
SWIDTH 612 0
DWIDTH 6 0
BBX 5 6 1 0
BITMAP
70
18
78
D8
D0
E0
ENDCHAR
STARTCHAR uni01DE
ENCODING 478
SWIDTH 771 0
DWIDTH 8 0
BBX 6 11 1 0
BITMAP
38
00
24
24
00
1C
2C
6C
7C
CC
CC
ENDCHAR
STARTCHAR uni01DF
ENCODING 479
SWIDTH 681 0
DWIDTH 7 0
BBX 6 11 1 0
BITMAP
38
00
24
24
00
3C
6C
CC
D8
F8
D8
ENDCHAR
STARTCHAR uni01E0
ENCODING 480
SWIDTH 771 0
DWIDTH 8 0
BBX 6 12 1 0
BITMAP
38
00
18
18
00
0C
1C
2C
6C
7C
CC
CC
ENDCHAR
STARTCHAR uni01E1
ENCODING 481
SWIDTH 681 0
DWIDTH 7 0
BBX 6 11 1 0
BITMAP
38
00
18
18
00
3C
6C
CC
D8
F8
D8
ENDCHAR
STARTCHAR uni01E2
ENCODING 482
SWIDTH 1004 0
DWIDTH 11 0
BBX 10 9 1 0
BITMAP
0E00
0000
0FC0
1600
2600
6780
7C00
CC00
CF80
ENDCHAR
STARTCHAR uni01E3
ENCODING 483
SWIDTH 987 0
DWIDTH 10 0
BBX 9 8 1 0
BITMAP
0E00
0000
7B80
0D80
7D80
CF00
DC00
6700
ENDCHAR
STARTCHAR uni01E4
ENCODING 484
SWIDTH 755 0
DWIDTH 8 0
BBX 7 7 1 0
BITMAP
1E
70
60
CE
CC
EC
78
ENDCHAR
STARTCHAR uni01E5
ENCODING 485
SWIDTH 674 0
DWIDTH 7 0
BBX 6 8 1 -2
BITMAP
3C
6C
CC
D8
F8
FC
18
F0
ENDCHAR
STARTCHAR Gcaron
ENCODING 486
SWIDTH 755 0
DWIDTH 8 0
BBX 7 10 1 0
BITMAP
2C
18
00
1E
70
60
CC
CC
EC
78
ENDCHAR
STARTCHAR gcaron
ENCODING 487
SWIDTH 674 0
DWIDTH 7 0
BBX 6 11 1 -2
BITMAP
58
30
00
3C
6C
CC
D8
F8
D8
18
F0
ENDCHAR
STARTCHAR uni01E8
ENCODING 488
SWIDTH 753 0
DWIDTH 8 0
BBX 7 10 1 0
BITMAP
2C
18
00
66
6C
78
F0
D8
CC
C6
ENDCHAR
STARTCHAR uni01E9
ENCODING 489
SWIDTH 666 0
DWIDTH 7 0
BBX 7 11 1 0
BITMAP
2C
18
00
30
30
66
6C
78
F0
D8
CC
ENDCHAR
STARTCHAR uni01EA
ENCODING 490
SWIDTH 855 0
DWIDTH 9 0
BBX 8 9 1 -2
BITMAP
1E
73
63
C3
C6
CE
78
10
0C
ENDCHAR
STARTCHAR uni01EB
ENCODING 491
SWIDTH 663 0
DWIDTH 7 0
BBX 6 8 1 -2
BITMAP
38
6C
CC
CC
D8
70
20
18
ENDCHAR
STARTCHAR uni01EC
ENCODING 492
SWIDTH 855 0
DWIDTH 9 0
BBX 8 11 1 -2
BITMAP
1C
00
1E
73
63
C3
C6
CE
78
10
0C
ENDCHAR
STARTCHAR uni01ED
ENCODING 493
SWIDTH 663 0
DWIDTH 7 0
BBX 6 10 1 -2
BITMAP
38
00
38
6C
CC
CC
D8
70
20
18
ENDCHAR
STARTCHAR uni01F0
ENCODING 496
SWIDTH 407 0
DWIDTH 4 0
BBX 6 11 -1 -2
BITMAP
2C
18
00
18
18
18
30
30
30
60
E0
ENDCHAR
STARTCHAR uni01F4
ENCODING 500
SWIDTH 755 0
DWIDTH 8 0
BBX 7 10 1 0
BITMAP
0C
18
00
1E
70
60
CC
CC
EC
78
ENDCHAR
STARTCHAR uni01F5
ENCODING 501
SWIDTH 674 0
DWIDTH 7 0
BBX 6 11 1 -2
BITMAP
18
30
00
3C
6C
CC
D8
F8
D8
18
F0
ENDCHAR
STARTCHAR uni01F8
ENCODING 504
SWIDTH 789 0
DWIDTH 8 0
BBX 7 10 1 0
BITMAP
30
18
00
62
72
72
5C
DC
8C
8C
ENDCHAR
STARTCHAR uni01F9
ENCODING 505
SWIDTH 675 0
DWIDTH 7 0
BBX 6 9 1 0
BITMAP
30
18
00
6C
7C
6C
C8
D8
D8
ENDCHAR
STARTCHAR Aringacute
ENCODING 506
SWIDTH 771 0
DWIDTH 8 0
BBX 7 12 1 0
BITMAP
0C
18
00
0C
16
0C
1C
2C
6C
7C
CC
CC
ENDCHAR
STARTCHAR aringacute
ENCODING 507
SWIDTH 681 0
DWIDTH 7 0
BBX 6 12 1 0
BITMAP
0C
18
00
18
2C
18
3C
6C
CC
D8
F8
D8
ENDCHAR
STARTCHAR AEacute
ENCODING 508
SWIDTH 1004 0
DWIDTH 11 0
BBX 10 10 1 0
BITMAP
0300
0600
0000
0FC0
1600
2600
6780
7C00
CC00
CF80
ENDCHAR
STARTCHAR aeacute
ENCODING 509
SWIDTH 987 0
DWIDTH 10 0
BBX 9 9 1 0
BITMAP
0600
0C00
0000
7B80
0D80
7D80
CF00
DC00
6700
ENDCHAR
STARTCHAR Oslashacute
ENCODING 510
SWIDTH 855 0
DWIDTH 9 0
BBX 8 12 1 -1
BITMAP
0C
18
00
01
1E
77
6B
CB
D6
EE
78
80
ENDCHAR
STARTCHAR oslashacute
ENCODING 511
SWIDTH 663 0
DWIDTH 7 0
BBX 8 11 0 -1
BITMAP
06
0C
00
01
1E
36
6E
76
6C
78
80
ENDCHAR
STARTCHAR Scommaaccent
ENCODING 536
SWIDTH 639 0
DWIDTH 7 0
BBX 6 11 1 -4
BITMAP
3C
60
60
30
18
18
F0
00
30
30
60
ENDCHAR
STARTCHAR scommaaccent
ENCODING 537
SWIDTH 527 0
DWIDTH 6 0
BBX 6 10 0 -4
BITMAP
3C
60
70
38
18
F0
00
30
30
60
ENDCHAR
STARTCHAR Tcommaaccent
ENCODING 538
SWIDTH 747 0
DWIDTH 8 0
BBX 6 11 2 -4
BITMAP
FC
30
30
70
60
60
60
00
30
30
60
ENDCHAR
STARTCHAR tcommaaccent
ENCODING 539
SWIDTH 437 0
DWIDTH 5 0
BBX 5 11 1 -4
BITMAP
30
F8
60
60
C0
C0
E0
00
60
60
C0
ENDCHAR
STARTCHAR uni021E
ENCODING 542
SWIDTH 813 0
DWIDTH 8 0
BBX 7 10 1 0
BITMAP
2C
18
00
66
66
66
FE
CC
CC
CC
ENDCHAR
STARTCHAR uni021F
ENCODING 543
SWIDTH 675 0
DWIDTH 7 0
BBX 6 11 1 0
BITMAP
58
30
00
30
30
6C
7C
6C
C8
D8
D8
ENDCHAR
STARTCHAR uni0226
ENCODING 550
SWIDTH 771 0
DWIDTH 8 0
BBX 6 10 1 0
BITMAP
18
18
00
0C
1C
2C
6C
7C
CC
CC
ENDCHAR
STARTCHAR uni0227
ENCODING 551
SWIDTH 681 0
DWIDTH 7 0
BBX 6 9 1 0
BITMAP
18
18
00
3C
6C
CC
D8
F8
D8
ENDCHAR
STARTCHAR uni0228
ENCODING 552
SWIDTH 642 0
DWIDTH 7 0
BBX 6 9 1 -2
BITMAP
7C
60
60
F8
C0
C0
F8
20
C0
ENDCHAR
STARTCHAR uni0229
ENCODING 553
SWIDTH 612 0
DWIDTH 6 0
BBX 5 8 1 -2
BITMAP
38
58
D8
F0
C0
70
20
C0
ENDCHAR
STARTCHAR uni022A
ENCODING 554
SWIDTH 855 0
DWIDTH 9 0
BBX 8 11 1 0
BITMAP
1C
00
12
12
00
3E
63
C3
C3
C6
7C
ENDCHAR
STARTCHAR uni022B
ENCODING 555
SWIDTH 663 0
DWIDTH 7 0
BBX 6 11 1 0
BITMAP
38
00
48
48
00
38
6C
CC
CC
D8
70
ENDCHAR
STARTCHAR uni022C
ENCODING 556
SWIDTH 855 0
DWIDTH 9 0
BBX 8 11 1 0
BITMAP
1C
00
1A
2C
00
3E
63
C3
C3
C6
7C
ENDCHAR
STARTCHAR uni022D
ENCODING 557
SWIDTH 663 0
DWIDTH 7 0
BBX 6 11 1 0
BITMAP
38
00
34
58
00
38
6C
CC
CC
D8
70
ENDCHAR
STARTCHAR uni022E
ENCODING 558
SWIDTH 855 0
DWIDTH 9 0
BBX 8 10 1 0
BITMAP
18
18
00
1E
73
63
C3
C6
CE
78
ENDCHAR
STARTCHAR uni022F
ENCODING 559
SWIDTH 663 0
DWIDTH 7 0
BBX 6 9 1 0
BITMAP
30
30
00
38
6C
CC
CC
D8
70
ENDCHAR
STARTCHAR uni0230
ENCODING 560
SWIDTH 855 0
DWIDTH 9 0
BBX 8 12 1 0
BITMAP
1C
00
18
18
00
1E
73
63
C3
C6
CE
78
ENDCHAR
STARTCHAR uni0231
ENCODING 561
SWIDTH 663 0
DWIDTH 7 0
BBX 6 11 1 0
BITMAP
38
00
30
30
00
38
6C
CC
CC
D8
70
ENDCHAR
STARTCHAR uni0232
ENCODING 562
SWIDTH 681 0
DWIDTH 7 0
BBX 6 9 2 0
BITMAP
38
00
CC
CC
D8
70
60
60
60
ENDCHAR
STARTCHAR uni0233
ENCODING 563
SWIDTH 633 0
DWIDTH 7 0
BBX 7 10 0 -2
BITMAP
38
00
66
66
66
6C
68
70
60
C0
ENDCHAR
STARTCHAR uni0250
ENCODING 592
SWIDTH 681 0
DWIDTH 7 0
BBX 6 6 1 0
BITMAP
6C
7C
6C
CC
D8
F0
ENDCHAR
STARTCHAR uni0259
ENCODING 601
SWIDTH 612 0
DWIDTH 6 0
BBX 5 6 1 0
BITMAP
70
18
78
D8
D0
E0
ENDCHAR
STARTCHAR uni025F
ENCODING 607
SWIDTH 464 0
DWIDTH 6 0
BBX 6 10 1 -4
BITMAP
0C
0C
0C
18
18
18
30
F8
30
E0
ENDCHAR
STARTCHAR uni0265
ENCODING 613
SWIDTH 675 0
DWIDTH 7 0
BBX 6 8 1 -2
BITMAP
6C
6C
4C
D8
F8
D8
30
30
ENDCHAR
STARTCHAR uni0275
ENCODING 629
SWIDTH 663 0
DWIDTH 7 0
BBX 6 6 1 0
BITMAP
38
6C
FC
CC
D8
70
ENDCHAR
STARTCHAR uni0279
ENCODING 633
SWIDTH 542 0
DWIDTH 6 0
BBX 5 6 1 0
BITMAP
18
18
18
30
F0
B0
ENDCHAR
STARTCHAR uni0287
ENCODING 647
SWIDTH 437 0
DWIDTH 5 0
BBX 5 7 1 0
BITMAP
38
18
18
30
30
F8
60
ENDCHAR
STARTCHAR uni0289
ENCODING 649
SWIDTH 675 0
DWIDTH 7 0
BBX 6 6 1 0
BITMAP
6C
6C
FC
D8
F8
D8
ENDCHAR
STARTCHAR uni028C
ENCODING 652
SWIDTH 630 0
DWIDTH 7 0
BBX 6 6 2 0
BITMAP
0C
1C
2C
6C
CC
CC
ENDCHAR
STARTCHAR uni028D
ENCODING 653
SWIDTH 878 0
DWIDTH 9 0
BBX 8 6 1 0
BITMAP
1B
3F
5B
DB
DB
C3
ENDCHAR
STARTCHAR uni028E
ENCODING 654
SWIDTH 633 0
DWIDTH 7 0
BBX 7 8 0 0
BITMAP
06
0C
1C
2C
6C
CC
CC
CC
ENDCHAR
STARTCHAR uni029E
ENCODING 670
SWIDTH 666 0
DWIDTH 7 0
BBX 7 8 1 -2
BITMAP
66
36
1E
3C
6C
CC
18
18
ENDCHAR
STARTCHAR uni02BB
ENCODING 699
SWIDTH 265 0
DWIDTH 3 0
BBX 3 3 1 5
BITMAP
60
C0
C0
ENDCHAR
STARTCHAR afii57929
ENCODING 700
SWIDTH 265 0
DWIDTH 3 0
BBX 3 3 1 5
BITMAP
60
60
C0
ENDCHAR
STARTCHAR afii64937
ENCODING 701
SWIDTH 265 0
DWIDTH 3 0
BBX 3 3 1 5
BITMAP
C0
C0
60
ENDCHAR
STARTCHAR circumflex
ENCODING 710
SWIDTH 663 0
DWIDTH 7 0
BBX 4 2 3 7
BITMAP
60
B0
ENDCHAR
STARTCHAR caron
ENCODING 711
SWIDTH 663 0
DWIDTH 7 0
BBX 4 2 3 7
BITMAP
B0
60
ENDCHAR
STARTCHAR uni02C8
ENCODING 712
SWIDTH 265 0
DWIDTH 3 0
BBX 1 3 2 5
BITMAP
80
80
80
ENDCHAR
STARTCHAR macron
ENCODING 713
SWIDTH 663 0
DWIDTH 7 0
BBX 3 1 3 7
BITMAP
E0
ENDCHAR
STARTCHAR uni02CA
ENCODING 714
SWIDTH 663 0
DWIDTH 7 0
BBX 3 2 4 7
BITMAP
60
C0
ENDCHAR
STARTCHAR uni02CB
ENCODING 715
SWIDTH 663 0
DWIDTH 7 0
BBX 3 2 4 7
BITMAP
C0
60
ENDCHAR
STARTCHAR uni02CD
ENCODING 717
SWIDTH 663 0
DWIDTH 7 0
BBX 3 1 3 -2
BITMAP
E0
ENDCHAR
STARTCHAR uni02CE
ENCODING 718
SWIDTH 663 0
DWIDTH 7 0
BBX 3 2 4 -3
BITMAP
C0
60
ENDCHAR
STARTCHAR uni02CF
ENCODING 719
SWIDTH 663 0
DWIDTH 7 0
BBX 3 2 4 -3
BITMAP
60
C0
ENDCHAR
STARTCHAR breve
ENCODING 728
SWIDTH 663 0
DWIDTH 7 0
BBX 4 2 3 7
BITMAP
90
60
ENDCHAR
STARTCHAR dotaccent
ENCODING 729
SWIDTH 663 0
DWIDTH 7 0
BBX 2 2 4 7
BITMAP
C0
C0
ENDCHAR
STARTCHAR ring
ENCODING 730
SWIDTH 663 0
DWIDTH 7 0
BBX 4 3 3 6
BITMAP
60
B0
60
ENDCHAR
STARTCHAR ogonek
ENCODING 731
SWIDTH 663 0
DWIDTH 7 0
BBX 3 2 2 -2
BITMAP
80
60
ENDCHAR
STARTCHAR tilde
ENCODING 732
SWIDTH 663 0
DWIDTH 7 0
BBX 5 2 2 7
BITMAP
68
B0
ENDCHAR
STARTCHAR hungarumlaut
ENCODING 733
SWIDTH 663 0
DWIDTH 7 0
BBX 5 2 2 7
BITMAP
D8
90
ENDCHAR
STARTCHAR uni02EE
ENCODING 750
SWIDTH 530 0
DWIDTH 6 0
BBX 6 3 1 5
BITMAP
6C
6C
D8
ENDCHAR
STARTCHAR uni037E
ENCODING 894
SWIDTH 343 0
DWIDTH 4 0
BBX 4 7 0 -1
BITMAP
30
30
00
00
60
60
C0
ENDCHAR
STARTCHAR tonos
ENCODING 900
SWIDTH 663 0
DWIDTH 7 0
BBX 3 2 4 7
BITMAP
60
C0
ENDCHAR
STARTCHAR dieresistonos
ENCODING 901
SWIDTH 663 0
DWIDTH 7 0
BBX 4 5 3 7
BITMAP
30
60
00
90
90
ENDCHAR
STARTCHAR anoteleia
ENCODING 903
SWIDTH 343 0
DWIDTH 7 0
BBX 2 2 3 2
BITMAP
C0
C0
ENDCHAR
STARTCHAR mu
ENCODING 956
SWIDTH 681 0
DWIDTH 7 0
BBX 7 8 0 -2
BITMAP
36
36
26
6C
7C
6C
C0
C0
ENDCHAR
STARTCHAR uni1E00
ENCODING 7680
SWIDTH 771 0
DWIDTH 8 0
BBX 6 11 1 -4
BITMAP
0C
1C
2C
6C
7C
CC
CC
00
30
58
30
ENDCHAR
STARTCHAR uni1E01
ENCODING 7681
SWIDTH 681 0
DWIDTH 7 0
BBX 6 10 1 -4
BITMAP
3C
6C
CC
D8
F8
D8
00
30
58
30
ENDCHAR
STARTCHAR uni1E02
ENCODING 7682
SWIDTH 660 0
DWIDTH 7 0
BBX 6 10 1 0
BITMAP
30
30
00
78
6C
6C
F8
CC
CC
F8
ENDCHAR
STARTCHAR uni1E03
ENCODING 7683
SWIDTH 681 0
DWIDTH 7 0
BBX 6 11 1 0
BITMAP
30
30
00
30
30
2C
7C
6C
CC
D8
F0
ENDCHAR
STARTCHAR uni1E04
ENCODING 7684
SWIDTH 660 0
DWIDTH 7 0
BBX 6 10 1 -3
BITMAP
78
6C
6C
F8
CC
CC
F8
00
30
30
ENDCHAR
STARTCHAR uni1E05
ENCODING 7685
SWIDTH 681 0
DWIDTH 7 0
BBX 6 11 1 -3
BITMAP
30
30
2C
7C
6C
CC
D8
F0
00
30
30
ENDCHAR
STARTCHAR uni1E06
ENCODING 7686
SWIDTH 660 0
DWIDTH 7 0
BBX 6 9 1 -2
BITMAP
78
6C
6C
F8
CC
CC
F8
00
70
ENDCHAR
STARTCHAR uni1E07
ENCODING 7687
SWIDTH 681 0
DWIDTH 7 0
BBX 6 10 1 -2
BITMAP
30
30
2C
7C
6C
CC
D8
F0
00
70
ENDCHAR
STARTCHAR uni1E08
ENCODING 7688
SWIDTH 737 0
DWIDTH 7 0
BBX 6 12 1 -2
BITMAP
18
30
00
1C
70
60
C0
C0
E0
78
20
C0
ENDCHAR
STARTCHAR uni1E09
ENCODING 7689
SWIDTH 548 0
DWIDTH 6 0
BBX 5 11 1 -2
BITMAP
30
60
00
38
60
C0
C0
C0
70
20
C0
ENDCHAR
STARTCHAR uni1E0A
ENCODING 7690
SWIDTH 822 0
DWIDTH 8 0
BBX 7 10 1 0
BITMAP
18
18
00
7C
66
66
E6
CC
CC
F0
ENDCHAR
STARTCHAR uni1E0B
ENCODING 7691
SWIDTH 681 0
DWIDTH 7 0
BBX 7 11 1 0
BITMAP
0C
0C
00
06
06
3C
6C
CC
D8
F8
D8
ENDCHAR
STARTCHAR uni1E0C
ENCODING 7692
SWIDTH 822 0
DWIDTH 8 0
BBX 7 10 1 -3
BITMAP
7C
66
66
E6
CC
CC
F0
00
30
30
ENDCHAR
STARTCHAR uni1E0D
ENCODING 7693
SWIDTH 681 0
DWIDTH 7 0
BBX 7 11 1 -3
BITMAP
06
06
3C
6C
CC
D8
F8
D8
00
30
30
ENDCHAR
STARTCHAR uni1E0E
ENCODING 7694
SWIDTH 822 0
DWIDTH 8 0
BBX 7 9 1 -2
BITMAP
7C
66
66
E6
CC
CC
F0
00
70
ENDCHAR
STARTCHAR uni1E0F
ENCODING 7695
SWIDTH 681 0
DWIDTH 7 0
BBX 7 10 1 -2
BITMAP
06
06
3C
6C
CC
D8
F8
D8
00
70
ENDCHAR
STARTCHAR uni1E10
ENCODING 7696
SWIDTH 822 0
DWIDTH 8 0
BBX 7 9 1 -2
BITMAP
7C
66
66
E6
CC
CC
F0
10
60
ENDCHAR
STARTCHAR uni1E11
ENCODING 7697
SWIDTH 681 0
DWIDTH 7 0
BBX 7 10 1 -2
BITMAP
06
06
3C
6C
CC
D8
F8
D8
10
60
ENDCHAR
STARTCHAR uni1E12
ENCODING 7698
SWIDTH 822 0
DWIDTH 8 0
BBX 7 10 1 -3
BITMAP
7C
66
66
E6
CC
CC
F0
00
30
58
ENDCHAR
STARTCHAR uni1E13
ENCODING 7699
SWIDTH 681 0
DWIDTH 7 0
BBX 7 11 1 -3
BITMAP
06
06
3C
6C
CC
D8
F8
D8
00
30
58
ENDCHAR
STARTCHAR uni1E14
ENCODING 7700
SWIDTH 642 0
DWIDTH 7 0
BBX 6 12 1 0
BITMAP
30
18
00
38
00
7C
60
60
F8
C0
C0
F8
ENDCHAR
STARTCHAR uni1E15
ENCODING 7701
SWIDTH 612 0
DWIDTH 6 0
BBX 5 11 1 0
BITMAP
60
30
00
38
00
38
58
D8
F0
C0
70
ENDCHAR
STARTCHAR uni1E16
ENCODING 7702
SWIDTH 642 0
DWIDTH 7 0
BBX 6 12 1 0
BITMAP
18
30
00
38
00
7C
60
60
F8
C0
C0
F8
ENDCHAR
STARTCHAR uni1E17
ENCODING 7703
SWIDTH 612 0
DWIDTH 6 0
BBX 5 11 1 0
BITMAP
18
30
00
38
00
38
58
D8
F0
C0
70
ENDCHAR
STARTCHAR uni1E18
ENCODING 7704
SWIDTH 642 0
DWIDTH 7 0
BBX 6 10 1 -3
BITMAP
7C
60
60
F8
C0
C0
F8
00
60
B0
ENDCHAR
STARTCHAR uni1E19
ENCODING 7705
SWIDTH 612 0
DWIDTH 6 0
BBX 5 9 1 -3
BITMAP
38
58
D8
F0
C0
70
00
60
B0
ENDCHAR
STARTCHAR uni1E1A
ENCODING 7706
SWIDTH 642 0
DWIDTH 7 0
BBX 6 10 1 -3
BITMAP
7C
60
60
F8
C0
C0
F8
00
68
B0
ENDCHAR
STARTCHAR uni1E1B
ENCODING 7707
SWIDTH 612 0
DWIDTH 6 0
BBX 6 9 0 -3
BITMAP
1C
2C
6C
78
60
38
00
68
B0
ENDCHAR
STARTCHAR uni1E1C
ENCODING 7708
SWIDTH 642 0
DWIDTH 7 0
BBX 6 12 1 -2
BITMAP
48
30
00
7C
60
60
F8
C0
C0
F8
20
C0
ENDCHAR
STARTCHAR uni1E1D
ENCODING 7709
SWIDTH 612 0
DWIDTH 6 0
BBX 5 11 1 -2
BITMAP
48
30
00
38
58
D8
F0
C0
70
20
C0
ENDCHAR
STARTCHAR uni1E1E
ENCODING 7710
SWIDTH 614 0
DWIDTH 6 0
BBX 6 10 1 0
BITMAP
30
30
00
7C
60
60
F8
C0
C0
C0
ENDCHAR
STARTCHAR uni1E1F
ENCODING 7711
SWIDTH 464 0
DWIDTH 6 0
BBX 6 13 1 -2
BITMAP
30
30
00
1C
30
7C
30
60
60
60
C0
C0
C0
ENDCHAR
STARTCHAR uni1E20
ENCODING 7712
SWIDTH 755 0
DWIDTH 8 0
BBX 7 9 1 0
BITMAP
38
00
1E
70
60
CC
CC
EC
78
ENDCHAR
STARTCHAR uni1E21
ENCODING 7713
SWIDTH 674 0
DWIDTH 7 0
BBX 6 10 1 -2
BITMAP
38
00
3C
6C
CC
D8
F8
D8
18
F0
ENDCHAR
STARTCHAR uni1E22
ENCODING 7714
SWIDTH 813 0
DWIDTH 8 0
BBX 7 10 1 0
BITMAP
18
18
00
66
66
66
FE
CC
CC
CC
ENDCHAR
STARTCHAR uni1E23
ENCODING 7715
SWIDTH 675 0
DWIDTH 7 0
BBX 6 11 1 0
BITMAP
30
30
00
30
30
6C
7C
6C
C8
D8
D8
ENDCHAR
STARTCHAR uni1E24
ENCODING 7716
SWIDTH 813 0
DWIDTH 8 0
BBX 7 10 1 -3
BITMAP
66
66
66
FE
CC
CC
CC
00
30
30
ENDCHAR
STARTCHAR uni1E25
ENCODING 7717
SWIDTH 675 0
DWIDTH 7 0
BBX 6 11 1 -3
BITMAP
30
30
6C
7C
6C
C8
D8
D8
00
30
30
ENDCHAR
STARTCHAR uni1E26
ENCODING 7718
SWIDTH 813 0
DWIDTH 8 0
BBX 7 10 1 0
BITMAP
24
24
00
66
66
66
FE
CC
CC
CC
ENDCHAR
STARTCHAR uni1E27
ENCODING 7719
SWIDTH 675 0
DWIDTH 7 0
BBX 6 11 1 0
BITMAP
48
48
00
30
30
6C
7C
6C
C8
D8
D8
ENDCHAR
STARTCHAR uni1E28
ENCODING 7720
SWIDTH 813 0
DWIDTH 8 0
BBX 7 9 1 -2
BITMAP
66
66
66
FE
CC
CC
CC
10
60
ENDCHAR
STARTCHAR uni1E29
ENCODING 7721
SWIDTH 675 0
DWIDTH 7 0
BBX 6 10 1 -2
BITMAP
30
30
6C
7C
6C
C8
D8
D8
20
C0
ENDCHAR
STARTCHAR uni1E2A
ENCODING 7722
SWIDTH 813 0
DWIDTH 8 0
BBX 7 10 1 -3
BITMAP
66
66
66
FE
CC
CC
CC
00
48
30
ENDCHAR
STARTCHAR uni1E2B
ENCODING 7723
SWIDTH 675 0
DWIDTH 7 0
BBX 6 11 1 -3
BITMAP
30
30
6C
7C
6C
C8
D8
D8
00
48
30
ENDCHAR
STARTCHAR uni1E2C
ENCODING 7724
SWIDTH 361 0
DWIDTH 4 0
BBX 5 10 -1 -3
BITMAP
18
18
18
38
30
30
30
00
68
B0
ENDCHAR
STARTCHAR uni1E2D
ENCODING 7725
SWIDTH 343 0
DWIDTH 4 0
BBX 5 11 0 -3
BITMAP
18
00
30
30
30
60
60
60
00
68
B0
ENDCHAR
STARTCHAR uni1E2E
ENCODING 7726
SWIDTH 361 0
DWIDTH 4 0
BBX 4 12 1 0
BITMAP
30
60
00
90
90
00
60
60
E0
C0
C0
C0
ENDCHAR
STARTCHAR uni1E2F
ENCODING 7727
SWIDTH 343 0
DWIDTH 4 0
BBX 4 12 1 0
BITMAP
30
60
00
90
90
00
60
60
60
C0
C0
C0
ENDCHAR
STARTCHAR uni1E30
ENCODING 7728
SWIDTH 753 0
DWIDTH 8 0
BBX 7 10 1 0
BITMAP
0C
18
00
66
6C
78
F0
D8
CC
C6
ENDCHAR
STARTCHAR uni1E31
ENCODING 7729
SWIDTH 666 0
DWIDTH 7 0
BBX 7 11 1 0
BITMAP
18
30
00
30
30
66
6C
78
F0
D8
CC
ENDCHAR
STARTCHAR uni1E32
ENCODING 7730
SWIDTH 753 0
DWIDTH 8 0
BBX 7 10 1 -3
BITMAP
66
6C
78
F0
D8
CC
C6
00
30
30
ENDCHAR
STARTCHAR uni1E33
ENCODING 7731
SWIDTH 666 0
DWIDTH 7 0
BBX 7 11 1 -3
BITMAP
30
30
66
6C
78
F0
D8
CC
00
30
30
ENDCHAR
STARTCHAR uni1E34
ENCODING 7732
SWIDTH 753 0
DWIDTH 8 0
BBX 7 9 1 -2
BITMAP
66
6C
78
F0
D8
CC
C6
00
38
ENDCHAR
STARTCHAR uni1E35
ENCODING 7733
SWIDTH 666 0
DWIDTH 7 0
BBX 7 10 1 -2
BITMAP
30
30
66
6C
78
F0
D8
CC
00
70
ENDCHAR
STARTCHAR uni1E36
ENCODING 7734
SWIDTH 623 0
DWIDTH 6 0
BBX 5 10 1 -3
BITMAP
60
60
60
E0
C0
C0
F8
00
60
60
ENDCHAR
STARTCHAR uni1E37
ENCODING 7735
SWIDTH 343 0
DWIDTH 4 0
BBX 4 11 1 -3
BITMAP
30
30
60
60
60
C0
C0
C0
00
C0
C0
ENDCHAR
STARTCHAR uni1E38
ENCODING 7736
SWIDTH 623 0
DWIDTH 6 0
BBX 5 12 1 -3
BITMAP
70
00
60
60
60
E0
C0
C0
F8
00
60
60
ENDCHAR
STARTCHAR uni1E39
ENCODING 7737
SWIDTH 343 0
DWIDTH 4 0
BBX 4 13 1 -3
BITMAP
70
00
30
30
60
60
60
C0
C0
C0
00
C0
C0
ENDCHAR
STARTCHAR uni1E3A
ENCODING 7738
SWIDTH 623 0
DWIDTH 6 0
BBX 5 9 1 -2
BITMAP
60
60
60
E0
C0
C0
F8
00
70
ENDCHAR
STARTCHAR uni1E3B
ENCODING 7739
SWIDTH 343 0
DWIDTH 4 0
BBX 4 10 1 -2
BITMAP
30
30
60
60
60
C0
C0
C0
00
E0
ENDCHAR
STARTCHAR uni1E3C
ENCODING 7740
SWIDTH 623 0
DWIDTH 6 0
BBX 5 10 1 -3
BITMAP
60
60
60
E0
C0
C0
F8
00
60
B0
ENDCHAR
STARTCHAR uni1E3D
ENCODING 7741
SWIDTH 343 0
DWIDTH 4 0
BBX 5 11 0 -3
BITMAP
18
18
30
30
30
60
60
60
00
60
B0
ENDCHAR
STARTCHAR uni1E3E
ENCODING 7742
SWIDTH 940 0
DWIDTH 10 0
BBX 9 10 1 0
BITMAP
0600
0C00
0000
6180
7380
7D80
D980
9B00
9300
8300
ENDCHAR
STARTCHAR uni1E3F
ENCODING 7743
SWIDTH 991 0
DWIDTH 10 0
BBX 9 9 1 0
BITMAP
0600
0C00
0000
6D80
7F80
6D80
C900
DB00
DB00
ENDCHAR
STARTCHAR uni1E40
ENCODING 7744
SWIDTH 940 0
DWIDTH 10 0
BBX 9 10 1 0
BITMAP
0C00
0C00
0000
6180
7380
7D80
D980
9B00
9300
8300
ENDCHAR
STARTCHAR uni1E41
ENCODING 7745
SWIDTH 991 0
DWIDTH 10 0
BBX 9 9 1 0
BITMAP
0C00
0C00
0000
6D80
7F80
6D80
C900
DB00
DB00
ENDCHAR
STARTCHAR uni1E42
ENCODING 7746
SWIDTH 940 0
DWIDTH 10 0
BBX 9 10 1 -3
BITMAP
6180
7380
7D80
D980
9B00
9300
8300
0000
0C00
0C00
ENDCHAR
STARTCHAR uni1E43
ENCODING 7747
SWIDTH 991 0
DWIDTH 10 0
BBX 9 9 1 -3
BITMAP
6D80
7F80
6D80
C900
DB00
DB00
0000
1800
1800
ENDCHAR
STARTCHAR uni1E44
ENCODING 7748
SWIDTH 789 0
DWIDTH 8 0
BBX 7 10 1 0
BITMAP
18
18
00
62
72
72
5C
DC
8C
8C
ENDCHAR
STARTCHAR uni1E45
ENCODING 7749
SWIDTH 675 0
DWIDTH 7 0
BBX 6 9 1 0
BITMAP
30
30
00
6C
7C
6C
C8
D8
D8
ENDCHAR
STARTCHAR uni1E46
ENCODING 7750
SWIDTH 789 0
DWIDTH 8 0
BBX 7 10 1 -3
BITMAP
62
72
72
5C
DC
8C
8C
00
18
18
ENDCHAR
STARTCHAR uni1E47
ENCODING 7751
SWIDTH 675 0
DWIDTH 7 0
BBX 6 9 1 -3
BITMAP
6C
7C
6C
C8
D8
D8
00
30
30
ENDCHAR
STARTCHAR uni1E48
ENCODING 7752
SWIDTH 789 0
DWIDTH 8 0
BBX 7 9 1 -2
BITMAP
62
72
72
5C
DC
8C
8C
00
38
ENDCHAR
STARTCHAR uni1E49
ENCODING 7753
SWIDTH 675 0
DWIDTH 7 0
BBX 6 8 1 -2
BITMAP
6C
7C
6C
C8
D8
D8
00
70
ENDCHAR
STARTCHAR uni1E4A
ENCODING 7754
SWIDTH 789 0
DWIDTH 8 0
BBX 7 10 1 -3
BITMAP
62
72
72
5C
DC
8C
8C
00
18
2C
ENDCHAR
STARTCHAR uni1E4B
ENCODING 7755
SWIDTH 675 0
DWIDTH 7 0
BBX 6 9 1 -3
BITMAP
6C
7C
6C
C8
D8
D8
00
30
58
ENDCHAR
STARTCHAR uni1E4C
ENCODING 7756
SWIDTH 855 0
DWIDTH 9 0
BBX 8 12 1 0
BITMAP
0C
18
00
1A
2C
00
3E
63
C3
C3
C6
7C
ENDCHAR
STARTCHAR uni1E4D
ENCODING 7757
SWIDTH 663 0
DWIDTH 7 0
BBX 6 12 1 0
BITMAP
18
30
00
34
58
00
38
6C
CC
CC
D8
70
ENDCHAR
STARTCHAR uni1E4E
ENCODING 7758
SWIDTH 855 0
DWIDTH 9 0
BBX 8 12 1 0
BITMAP
24
24
00
1A
2C
00
3E
63
C3
C3
C6
7C
ENDCHAR
STARTCHAR uni1E4F
ENCODING 7759
SWIDTH 663 0
DWIDTH 7 0
BBX 6 12 1 0
BITMAP
48
48
00
34
58
00
38
6C
CC
CC
D8
70
ENDCHAR
STARTCHAR uni1E50
ENCODING 7760
SWIDTH 855 0
DWIDTH 9 0
BBX 8 12 1 0
BITMAP
18
0C
00
1C
00
1E
73
63
C3
C6
CE
78
ENDCHAR
STARTCHAR uni1E51
ENCODING 7761
SWIDTH 663 0
DWIDTH 7 0
BBX 6 11 1 0
BITMAP
30
18
00
38
00
38
6C
CC
CC
D8
70
ENDCHAR
STARTCHAR uni1E52
ENCODING 7762
SWIDTH 855 0
DWIDTH 9 0
BBX 8 12 1 0
BITMAP
0C
18
00
1C
00
1E
73
63
C3
C6
CE
78
ENDCHAR
STARTCHAR uni1E53
ENCODING 7763
SWIDTH 663 0
DWIDTH 7 0
BBX 6 11 1 0
BITMAP
18
30
00
38
00
38
6C
CC
CC
D8
70
ENDCHAR
STARTCHAR uni1E54
ENCODING 7764
SWIDTH 645 0
DWIDTH 7 0
BBX 7 10 1 0
BITMAP
18
30
00
7C
66
66
F8
C0
C0
C0
ENDCHAR
STARTCHAR uni1E55
ENCODING 7765
SWIDTH 681 0
DWIDTH 7 0
BBX 7 11 0 -2
BITMAP
0C
18
00
36
3E
36
66
6C
78
C0
C0
ENDCHAR
STARTCHAR uni1E56
ENCODING 7766
SWIDTH 645 0
DWIDTH 7 0
BBX 7 10 1 0
BITMAP
18
18
00
7C
66
66
F8
C0
C0
C0
ENDCHAR
STARTCHAR uni1E57
ENCODING 7767
SWIDTH 681 0
DWIDTH 7 0
BBX 7 11 0 -2
BITMAP
18
18
00
36
3E
36
66
6C
78
C0
C0
ENDCHAR
STARTCHAR uni1E58
ENCODING 7768
SWIDTH 708 0
DWIDTH 8 0
BBX 7 10 1 0
BITMAP
18
18
00
7C
66
66
FC
D8
CC
CC
ENDCHAR
STARTCHAR uni1E59
ENCODING 7769
SWIDTH 542 0
DWIDTH 6 0
BBX 5 9 1 0
BITMAP
30
30
00
68
78
60
C0
C0
C0
ENDCHAR
STARTCHAR uni1E5A
ENCODING 7770
SWIDTH 708 0
DWIDTH 8 0
BBX 7 10 1 -3
BITMAP
7C
66
66
FC
D8
CC
CC
00
30
30
ENDCHAR
STARTCHAR uni1E5B
ENCODING 7771
SWIDTH 542 0
DWIDTH 6 0
BBX 5 9 1 -3
BITMAP
68
78
60
C0
C0
C0
00
60
60
ENDCHAR
STARTCHAR uni1E5C
ENCODING 7772
SWIDTH 708 0
DWIDTH 8 0
BBX 7 12 1 -3
BITMAP
38
00
7C
66
66
FC
D8
CC
CC
00
30
30
ENDCHAR
STARTCHAR uni1E5D
ENCODING 7773
SWIDTH 542 0
DWIDTH 6 0
BBX 5 11 1 -3
BITMAP
70
00
68
78
60
C0
C0
C0
00
60
60
ENDCHAR
STARTCHAR uni1E5E
ENCODING 7774
SWIDTH 708 0
DWIDTH 8 0
BBX 7 9 1 -2
BITMAP
7C
66
66
FC
D8
CC
CC
00
38
ENDCHAR
STARTCHAR uni1E5F
ENCODING 7775
SWIDTH 542 0
DWIDTH 6 0
BBX 5 8 1 -2
BITMAP
68
78
60
C0
C0
C0
00
E0
ENDCHAR
STARTCHAR uni1E60
ENCODING 7776
SWIDTH 639 0
DWIDTH 7 0
BBX 6 10 1 0
BITMAP
30
30
00
3C
60
60
30
18
18
F0
ENDCHAR
STARTCHAR uni1E61
ENCODING 7777
SWIDTH 527 0
DWIDTH 6 0
BBX 6 9 0 0
BITMAP
30
30
00
3C
60
70
38
18
F0
ENDCHAR
STARTCHAR uni1E62
ENCODING 7778
SWIDTH 639 0
DWIDTH 7 0
BBX 6 10 1 -3
BITMAP
3C
60
60
30
18
18
F0
00
30
30
ENDCHAR
STARTCHAR uni1E63
ENCODING 7779
SWIDTH 527 0
DWIDTH 6 0
BBX 6 9 0 -3
BITMAP
3C
60
70
38
18
F0
00
30
30
ENDCHAR
STARTCHAR uni1E64
ENCODING 7780
SWIDTH 639 0
DWIDTH 7 0
BBX 6 13 1 0
BITMAP
30
30
00
18
30
00
3C
60
60
30
18
18
F0
ENDCHAR
STARTCHAR uni1E65
ENCODING 7781
SWIDTH 527 0
DWIDTH 6 0
BBX 6 12 0 0
BITMAP
30
30
00
18
30
00
3C
60
70
38
18
F0
ENDCHAR
STARTCHAR uni1E66
ENCODING 7782
SWIDTH 639 0
DWIDTH 7 0
BBX 6 12 1 0
BITMAP
18
18
00
2C
18
00
3C
60
70
38
18
F0
ENDCHAR
STARTCHAR uni1E67
ENCODING 7783
SWIDTH 527 0
DWIDTH 6 0
BBX 6 12 0 0
BITMAP
18
18
00
2C
18
00
3C
60
70
38
18
F0
ENDCHAR
STARTCHAR uni1E68
ENCODING 7784
SWIDTH 639 0
DWIDTH 7 0
BBX 6 13 1 -3
BITMAP
30
30
00
3C
60
60
30
18
18
F0
00
30
30
ENDCHAR
STARTCHAR uni1E69
ENCODING 7785
SWIDTH 527 0
DWIDTH 6 0
BBX 6 12 0 -3
BITMAP
30
30
00
3C
60
70
38
18
F0
00
30
30
ENDCHAR
STARTCHAR uni1E6A
ENCODING 7786
SWIDTH 747 0
DWIDTH 8 0
BBX 6 10 2 0
BITMAP
30
30
00
FC
30
30
70
60
60
60
ENDCHAR
STARTCHAR uni1E6B
ENCODING 7787
SWIDTH 437 0
DWIDTH 5 0
BBX 5 10 1 0
BITMAP
30
30
00
30
F8
60
60
C0
C0
E0
ENDCHAR
STARTCHAR uni1E6C
ENCODING 7788
SWIDTH 747 0
DWIDTH 8 0
BBX 6 10 2 -3
BITMAP
FC
30
30
70
60
60
60
00
60
60
ENDCHAR
STARTCHAR uni1E6D
ENCODING 7789
SWIDTH 437 0
DWIDTH 5 0
BBX 5 10 1 -3
BITMAP
30
F8
60
60
C0
C0
E0
00
60
60
ENDCHAR
STARTCHAR uni1E6E
ENCODING 7790
SWIDTH 747 0
DWIDTH 8 0
BBX 6 9 2 -2
BITMAP
FC
30
30
70
60
60
60
00
70
ENDCHAR
STARTCHAR uni1E6F
ENCODING 7791
SWIDTH 437 0
DWIDTH 5 0
BBX 5 9 1 -2
BITMAP
30
F8
60
60
C0
C0
E0
00
E0
ENDCHAR
STARTCHAR uni1E70
ENCODING 7792
SWIDTH 747 0
DWIDTH 8 0
BBX 6 10 2 -3
BITMAP
FC
30
30
70
60
60
60
00
60
B0
ENDCHAR
STARTCHAR uni1E71
ENCODING 7793
SWIDTH 437 0
DWIDTH 5 0
BBX 5 10 1 -3
BITMAP
30
F8
60
60
C0
C0
E0
00
60
B0
ENDCHAR
STARTCHAR uni1E72
ENCODING 7794
SWIDTH 759 0
DWIDTH 8 0
BBX 7 10 1 -3
BITMAP
66
66
66
CC
CC
C8
70
00
48
48
ENDCHAR
STARTCHAR uni1E73
ENCODING 7795
SWIDTH 675 0
DWIDTH 7 0
BBX 6 9 1 -3
BITMAP
6C
6C
4C
D8
F8
D8
00
48
48
ENDCHAR
STARTCHAR uni1E74
ENCODING 7796
SWIDTH 759 0
DWIDTH 8 0
BBX 7 10 1 -3
BITMAP
66
66
66
CC
CC
C8
70
00
68
B0
ENDCHAR
STARTCHAR uni1E75
ENCODING 7797
SWIDTH 675 0
DWIDTH 7 0
BBX 6 9 1 -3
BITMAP
6C
6C
4C
D8
F8
D8
00
68
B0
ENDCHAR
STARTCHAR uni1E76
ENCODING 7798
SWIDTH 759 0
DWIDTH 8 0
BBX 7 10 1 -3
BITMAP
66
66
66
CC
CC
C8
70
00
30
58
ENDCHAR
STARTCHAR uni1E77
ENCODING 7799
SWIDTH 675 0
DWIDTH 7 0
BBX 6 9 1 -3
BITMAP
6C
6C
4C
D8
F8
D8
00
30
58
ENDCHAR
STARTCHAR uni1E78
ENCODING 7800
SWIDTH 759 0
DWIDTH 8 0
BBX 7 13 1 0
BITMAP
0C
18
00
1A
2C
00
66
66
66
CC
CC
C8
70
ENDCHAR
STARTCHAR uni1E79
ENCODING 7801
SWIDTH 675 0
DWIDTH 7 0
BBX 6 12 1 0
BITMAP
18
30
00
34
58
00
6C
6C
4C
D8
F8
D8
ENDCHAR
STARTCHAR uni1E7A
ENCODING 7802
SWIDTH 759 0
DWIDTH 8 0
BBX 7 12 1 0
BITMAP
24
24
00
38
00
66
66
66
CC
CC
C8
70
ENDCHAR
STARTCHAR uni1E7B
ENCODING 7803
SWIDTH 675 0
DWIDTH 7 0
BBX 6 11 1 0
BITMAP
48
48
00
38
00
6C
6C
4C
D8
F8
D8
ENDCHAR
STARTCHAR uni1E7C
ENCODING 7804
SWIDTH 765 0
DWIDTH 8 0
BBX 6 10 2 0
BITMAP
34
58
00
CC
CC
C8
D8
D0
E0
C0
ENDCHAR
STARTCHAR uni1E7D
ENCODING 7805
SWIDTH 630 0
DWIDTH 7 0
BBX 6 9 2 0
BITMAP
34
58
00
CC
CC
D8
D0
E0
C0
ENDCHAR
STARTCHAR uni1E7E
ENCODING 7806
SWIDTH 765 0
DWIDTH 8 0
BBX 6 10 2 -3
BITMAP
CC
CC
C8
D8
D0
E0
C0
00
60
60
ENDCHAR
STARTCHAR uni1E7F
ENCODING 7807
SWIDTH 630 0
DWIDTH 7 0
BBX 6 9 2 -3
BITMAP
CC
CC
D8
D0
E0
C0
00
60
60
ENDCHAR
STARTCHAR Wgrave
ENCODING 7808
SWIDTH 991 0
DWIDTH 11 0
BBX 10 10 2 0
BITMAP
1800
0C00
0000
C0C0
CCC0
CC80
DD80
DD00
EE00
CC00
ENDCHAR
STARTCHAR wgrave
ENCODING 7809
SWIDTH 878 0
DWIDTH 9 0
BBX 8 9 1 0
BITMAP
30
18
00
C3
DB
DB
DA
FC
D8
ENDCHAR
STARTCHAR Wacute
ENCODING 7810
SWIDTH 991 0
DWIDTH 11 0
BBX 10 10 2 0
BITMAP
0600
0C00
0000
C0C0
CCC0
CC80
DD80
DD00
EE00
CC00
ENDCHAR
STARTCHAR wacute
ENCODING 7811
SWIDTH 878 0
DWIDTH 9 0
BBX 8 9 1 0
BITMAP
0C
18
00
C3
DB
DB
DA
FC
D8
ENDCHAR
STARTCHAR Wdieresis
ENCODING 7812
SWIDTH 991 0
DWIDTH 11 0
BBX 10 10 2 0
BITMAP
1200
1200
0000
C0C0
CCC0
CC80
DD80
DD00
EE00
CC00
ENDCHAR
STARTCHAR wdieresis
ENCODING 7813
SWIDTH 878 0
DWIDTH 9 0
BBX 8 9 1 0
BITMAP
24
24
00
C3
DB
DB
DA
FC
D8
ENDCHAR
STARTCHAR uni1E86
ENCODING 7814
SWIDTH 991 0
DWIDTH 11 0
BBX 10 10 2 0
BITMAP
0C00
0C00
0000
C0C0
CCC0
CC80
DD80
DD00
EE00
CC00
ENDCHAR
STARTCHAR uni1E87
ENCODING 7815
SWIDTH 878 0
DWIDTH 9 0
BBX 8 9 1 0
BITMAP
18
18
00
C3
DB
DB
DA
FC
D8
ENDCHAR
STARTCHAR uni1E88
ENCODING 7816
SWIDTH 991 0
DWIDTH 11 0
BBX 10 10 2 -3
BITMAP
C0C0
CCC0
CC80
DD80
DD00
EE00
CC00
0000
1800
1800
ENDCHAR
STARTCHAR uni1E89
ENCODING 7817
SWIDTH 878 0
DWIDTH 9 0
BBX 8 9 1 -3
BITMAP
C3
DB
DB
DA
FC
D8
00
30
30
ENDCHAR
STARTCHAR uni1E8A
ENCODING 7818
SWIDTH 696 0
DWIDTH 7 0
BBX 8 10 0 0
BITMAP
0C
0C
00
33
36
3C
18
3C
6C
CC
ENDCHAR
STARTCHAR uni1E8B
ENCODING 7819
SWIDTH 563 0
DWIDTH 6 0
BBX 6 9 0 0
BITMAP
30
30
00
6C
6C
38
70
D8
D8
ENDCHAR
STARTCHAR uni1E8C
ENCODING 7820
SWIDTH 696 0
DWIDTH 7 0
BBX 8 10 0 0
BITMAP
12
12
00
33
36
3C
18
3C
6C
CC
ENDCHAR
STARTCHAR uni1E8D
ENCODING 7821
SWIDTH 563 0
DWIDTH 6 0
BBX 6 9 0 0
BITMAP
48
48
00
6C
6C
38
70
D8
D8
ENDCHAR
STARTCHAR uni1E8E
ENCODING 7822
SWIDTH 681 0
DWIDTH 7 0
BBX 6 10 2 0
BITMAP
30
30
00
CC
CC
D8
70
60
60
60
ENDCHAR
STARTCHAR uni1E8F
ENCODING 7823
SWIDTH 633 0
DWIDTH 7 0
BBX 7 11 0 -2
BITMAP
18
18
00
66
66
66
6C
68
70
60
C0
ENDCHAR
STARTCHAR uni1E90
ENCODING 7824
SWIDTH 687 0
DWIDTH 7 0
BBX 6 10 1 0
BITMAP
30
58
00
7C
1C
18
30
60
E0
F8
ENDCHAR
STARTCHAR uni1E91
ENCODING 7825
SWIDTH 630 0
DWIDTH 7 0
BBX 6 9 1 0
BITMAP
18
2C
00
7C
0C
38
70
C0
F8
ENDCHAR
STARTCHAR uni1E92
ENCODING 7826
SWIDTH 687 0
DWIDTH 7 0
BBX 6 10 1 -3
BITMAP
7C
1C
18
30
60
E0
F8
00
60
60
ENDCHAR
STARTCHAR uni1E93
ENCODING 7827
SWIDTH 630 0
DWIDTH 7 0
BBX 6 9 1 -3
BITMAP
7C
0C
38
70
C0
F8
00
60
60
ENDCHAR
STARTCHAR uni1E94
ENCODING 7828
SWIDTH 687 0
DWIDTH 7 0
BBX 6 9 1 -2
BITMAP
7C
1C
18
30
60
E0
F8
00
70
ENDCHAR
STARTCHAR uni1E95
ENCODING 7829
SWIDTH 630 0
DWIDTH 7 0
BBX 6 8 1 -2
BITMAP
7C
0C
38
70
C0
F8
00
70
ENDCHAR
STARTCHAR uni1E96
ENCODING 7830
SWIDTH 675 0
DWIDTH 7 0
BBX 6 10 1 -2
BITMAP
30
30
6C
7C
6C
C8
D8
D8
00
70
ENDCHAR
STARTCHAR uni1E97
ENCODING 7831
SWIDTH 437 0
DWIDTH 5 0
BBX 5 10 1 0
BITMAP
48
48
00
30
F8
60
60
C0
C0
E0
ENDCHAR
STARTCHAR uni1E98
ENCODING 7832
SWIDTH 878 0
DWIDTH 9 0
BBX 8 10 1 0
BITMAP
18
2C
18
00
C3
DB
DB
DA
FC
D8
ENDCHAR
STARTCHAR uni1E99
ENCODING 7833
SWIDTH 633 0
DWIDTH 7 0
BBX 7 12 0 -2
BITMAP
18
2C
18
00
66
66
66
6C
68
70
60
C0
ENDCHAR
STARTCHAR uni1EA0
ENCODING 7840
SWIDTH 771 0
DWIDTH 8 0
BBX 6 10 1 -3
BITMAP
0C
1C
2C
6C
7C
CC
CC
00
30
30
ENDCHAR
STARTCHAR uni1EA1
ENCODING 7841
SWIDTH 681 0
DWIDTH 7 0
BBX 6 9 1 -3
BITMAP
3C
6C
CC
D8
F8
D8
00
30
30
ENDCHAR
STARTCHAR uni1EA4
ENCODING 7844
SWIDTH 771 0
DWIDTH 8 0
BBX 6 12 1 0
BITMAP
0C
18
00
18
2C
00
1C
2C
6C
7C
CC
CC
ENDCHAR
STARTCHAR uni1EA5
ENCODING 7845
SWIDTH 681 0
DWIDTH 7 0
BBX 6 12 1 0
BITMAP
0C
18
00
18
2C
00
3C
6C
CC
D8
F8
D8
ENDCHAR
STARTCHAR uni1EA6
ENCODING 7846
SWIDTH 771 0
DWIDTH 8 0
BBX 6 12 1 0
BITMAP
30
18
00
18
2C
00
1C
2C
6C
7C
CC
CC
ENDCHAR
STARTCHAR uni1EA7
ENCODING 7847
SWIDTH 681 0
DWIDTH 7 0
BBX 6 12 1 0
BITMAP
30
18
00
18
2C
00
3C
6C
CC
D8
F8
D8
ENDCHAR
STARTCHAR uni1EAA
ENCODING 7850
SWIDTH 771 0
DWIDTH 8 0
BBX 6 12 1 0
BITMAP
34
58
00
18
2C
00
1C
2C
6C
7C
CC
CC
ENDCHAR
STARTCHAR uni1EAB
ENCODING 7851
SWIDTH 681 0
DWIDTH 7 0
BBX 6 12 1 0
BITMAP
34
58
00
18
2C
00
3C
6C
CC
D8
F8
D8
ENDCHAR
STARTCHAR uni1EAC
ENCODING 7852
SWIDTH 771 0
DWIDTH 8 0
BBX 6 13 1 -3
BITMAP
18
2C
00
0C
1C
2C
6C
7C
CC
CC
00
30
30
ENDCHAR
STARTCHAR uni1EAD
ENCODING 7853
SWIDTH 681 0
DWIDTH 7 0
BBX 6 12 1 -3
BITMAP
30
58
00
3C
6C
CC
D8
F8
D8
00
30
30
ENDCHAR
STARTCHAR uni1EAE
ENCODING 7854
SWIDTH 771 0
DWIDTH 8 0
BBX 6 13 1 0
BITMAP
0C
18
00
24
18
00
0C
1C
2C
6C
7C
CC
CC
ENDCHAR
STARTCHAR uni1EAF
ENCODING 7855
SWIDTH 681 0
DWIDTH 7 0
BBX 6 12 1 0
BITMAP
0C
18
00
24
18
00
3C
6C
CC
D8
F8
D8
ENDCHAR
STARTCHAR uni1EB0
ENCODING 7856
SWIDTH 771 0
DWIDTH 8 0
BBX 6 13 1 0
BITMAP
30
18
00
24
18
00
0C
1C
2C
6C
7C
CC
CC
ENDCHAR
STARTCHAR uni1EB1
ENCODING 7857
SWIDTH 681 0
DWIDTH 7 0
BBX 6 12 1 0
BITMAP
30
18
00
24
18
00
3C
6C
CC
D8
F8
D8
ENDCHAR
STARTCHAR uni1EB4
ENCODING 7860
SWIDTH 771 0
DWIDTH 8 0
BBX 6 13 1 0
BITMAP
34
58
00
24
18
00
0C
1C
2C
6C
7C
CC
CC
ENDCHAR
STARTCHAR uni1EB5
ENCODING 7861
SWIDTH 681 0
DWIDTH 7 0
BBX 6 12 1 0
BITMAP
34
58
00
24
18
00
3C
6C
CC
D8
F8
D8
ENDCHAR
STARTCHAR uni1EB6
ENCODING 7862
SWIDTH 771 0
DWIDTH 8 0
BBX 6 13 1 -3
BITMAP
24
18
00
0C
1C
2C
6C
7C
CC
CC
00
30
30
ENDCHAR
STARTCHAR uni1EB7
ENCODING 7863
SWIDTH 681 0
DWIDTH 7 0
BBX 6 12 1 -3
BITMAP
48
30
00
3C
6C
CC
D8
F8
D8
00
30
30
ENDCHAR
STARTCHAR uni1EB8
ENCODING 7864
SWIDTH 642 0
DWIDTH 7 0
BBX 6 10 1 -3
BITMAP
7C
60
60
F8
C0
C0
F8
00
60
60
ENDCHAR
STARTCHAR uni1EB9
ENCODING 7865
SWIDTH 612 0
DWIDTH 6 0
BBX 5 9 1 -3
BITMAP
38
58
D8
F0
C0
70
00
60
60
ENDCHAR
STARTCHAR uni1EBC
ENCODING 7868
SWIDTH 642 0
DWIDTH 7 0
BBX 6 10 1 0
BITMAP
34
58
00
7C
60
60
F8
C0
C0
F8
ENDCHAR
STARTCHAR uni1EBD
ENCODING 7869
SWIDTH 612 0
DWIDTH 6 0
BBX 6 9 1 0
BITMAP
34
58
00
38
58
D8
F0
C0
70
ENDCHAR
STARTCHAR uni1EBE
ENCODING 7870
SWIDTH 642 0
DWIDTH 7 0
BBX 6 12 1 0
BITMAP
0C
18
00
18
2C
00
7C
60
F8
C0
C0
F8
ENDCHAR
STARTCHAR uni1EBF
ENCODING 7871
SWIDTH 612 0
DWIDTH 6 0
BBX 5 12 1 0
BITMAP
18
30
00
30
58
00
38
58
D8
F0
C0
70
ENDCHAR
STARTCHAR uni1EC0
ENCODING 7872
SWIDTH 642 0
DWIDTH 7 0
BBX 6 12 1 0
BITMAP
30
18
00
18
2C
00
7C
60
F8
C0
C0
F8
ENDCHAR
STARTCHAR uni1EC1
ENCODING 7873
SWIDTH 612 0
DWIDTH 6 0
BBX 5 12 1 0
BITMAP
60
30
00
30
58
00
38
58
D8
F0
C0
70
ENDCHAR
STARTCHAR uni1EC4
ENCODING 7876
SWIDTH 642 0
DWIDTH 7 0
BBX 6 12 1 0
BITMAP
34
58
00
18
2C
00
7C
60
F8
C0
C0
F8
ENDCHAR
STARTCHAR uni1EC5
ENCODING 7877
SWIDTH 612 0
DWIDTH 6 0
BBX 6 12 1 0
BITMAP
34
58
00
30
58
00
38
58
D8
F0
C0
70
ENDCHAR
STARTCHAR uni1EC6
ENCODING 7878
SWIDTH 642 0
DWIDTH 7 0
BBX 6 13 1 -3
BITMAP
30
58
00
7C
60
60
F8
C0
C0
F8
00
60
60
ENDCHAR
STARTCHAR uni1EC7
ENCODING 7879
SWIDTH 612 0
DWIDTH 6 0
BBX 5 12 1 -3
BITMAP
30
58
00
38
58
D8
F0
C0
70
00
60
60
ENDCHAR
STARTCHAR uni1ECA
ENCODING 7882
SWIDTH 361 0
DWIDTH 4 0
BBX 3 10 1 -3
BITMAP
60
60
60
E0
C0
C0
C0
00
C0
C0
ENDCHAR
STARTCHAR uni1ECB
ENCODING 7883
SWIDTH 343 0
DWIDTH 4 0
BBX 4 11 1 -3
BITMAP
30
00
60
60
60
C0
C0
C0
00
C0
C0
ENDCHAR
STARTCHAR uni1ECC
ENCODING 7884
SWIDTH 855 0
DWIDTH 9 0
BBX 8 10 1 -3
BITMAP
1E
73
63
C3
C6
CE
78
00
18
18
ENDCHAR
STARTCHAR uni1ECD
ENCODING 7885
SWIDTH 663 0
DWIDTH 7 0
BBX 6 9 1 -3
BITMAP
38
6C
CC
CC
D8
70
00
30
30
ENDCHAR
STARTCHAR uni1ED0
ENCODING 7888
SWIDTH 855 0
DWIDTH 9 0
BBX 8 12 1 0
BITMAP
06
0C
00
0C
16
00
3E
63
C3
C3
C6
7C
ENDCHAR
STARTCHAR uni1ED1
ENCODING 7889
SWIDTH 663 0
DWIDTH 7 0
BBX 6 12 1 0
BITMAP
0C
18
00
18
2C
00
38
6C
CC
CC
D8
70
ENDCHAR
STARTCHAR uni1ED2
ENCODING 7890
SWIDTH 855 0
DWIDTH 9 0
BBX 8 12 1 0
BITMAP
18
0C
00
0C
16
00
3E
63
C3
C3
C6
7C
ENDCHAR
STARTCHAR uni1ED3
ENCODING 7891
SWIDTH 663 0
DWIDTH 7 0
BBX 6 12 1 0
BITMAP
30
18
00
18
2C
00
38
6C
CC
CC
D8
70
ENDCHAR
STARTCHAR uni1ED6
ENCODING 7894
SWIDTH 855 0
DWIDTH 9 0
BBX 8 12 1 0
BITMAP
1A
2C
00
0C
16
00
3E
63
C3
C3
C6
7C
ENDCHAR
STARTCHAR uni1ED7
ENCODING 7895
SWIDTH 663 0
DWIDTH 7 0
BBX 6 12 1 0
BITMAP
34
58
00
18
2C
00
38
6C
CC
CC
D8
70
ENDCHAR
STARTCHAR uni1ED8
ENCODING 7896
SWIDTH 855 0
DWIDTH 9 0
BBX 8 13 1 -3
BITMAP
18
2C
00
1E
73
63
C3
C6
CE
78
00
18
18
ENDCHAR
STARTCHAR uni1ED9
ENCODING 7897
SWIDTH 663 0
DWIDTH 7 0
BBX 6 12 1 -3
BITMAP
30
58
00
38
6C
CC
CC
D8
70
00
30
30
ENDCHAR
STARTCHAR uni1EDA
ENCODING 7898
SWIDTH 855 0
DWIDTH 9 0
BBX 11 10 1 0
BITMAP
0300
0600
0000
1E60
7360
63C0
C300
C600
CE00
7800
ENDCHAR
STARTCHAR uni1EDB
ENCODING 7899
SWIDTH 663 0
DWIDTH 7 0
BBX 9 9 1 0
BITMAP
0600
0C00
0000
3980
6D80
CF00
CC00
D800
7000
ENDCHAR
STARTCHAR uni1EDC
ENCODING 7900
SWIDTH 855 0
DWIDTH 9 0
BBX 11 10 1 0
BITMAP
0C00
0600
0000
1E60
7360
63C0
C300
C600
CE00
7800
ENDCHAR
STARTCHAR uni1EDD
ENCODING 7901
SWIDTH 663 0
DWIDTH 7 0
BBX 9 9 1 0
BITMAP
1800
0C00
0000
3980
6D80
CF00
CC00
D800
7000
ENDCHAR
STARTCHAR uni1EE0
ENCODING 7904
SWIDTH 855 0
DWIDTH 9 0
BBX 11 10 1 0
BITMAP
0680
0B00
0000
1E60
7360
63C0
C300
C600
CE00
7800
ENDCHAR
STARTCHAR uni1EE1
ENCODING 7905
SWIDTH 663 0
DWIDTH 7 0
BBX 9 9 1 0
BITMAP
0D00
1600
0000
3980
6D80
CF00
CC00
D800
7000
ENDCHAR
STARTCHAR uni1EE2
ENCODING 7906
SWIDTH 855 0
DWIDTH 9 0
BBX 11 10 1 -3
BITMAP
1E60
7360
63C0
C300
C600
CE00
7800
0000
1800
1800
ENDCHAR
STARTCHAR uni1EE3
ENCODING 7907
SWIDTH 663 0
DWIDTH 7 0
BBX 9 9 1 -3
BITMAP
3980
6D80
CF00
CC00
D800
7000
0000
3000
3000
ENDCHAR
STARTCHAR uni1EE4
ENCODING 7908
SWIDTH 759 0
DWIDTH 8 0
BBX 7 10 1 -3
BITMAP
66
66
66
CC
CC
C8
70
00
30
30
ENDCHAR
STARTCHAR uni1EE5
ENCODING 7909
SWIDTH 675 0
DWIDTH 7 0
BBX 6 9 1 -3
BITMAP
6C
6C
4C
D8
F8
D8
00
30
30
ENDCHAR
STARTCHAR uni1EE8
ENCODING 7912
SWIDTH 759 0
DWIDTH 8 0
BBX 10 10 1 0
BITMAP
0600
0C00
0000
66C0
66C0
6780
CC00
CC00
C800
7000
ENDCHAR
STARTCHAR uni1EE9
ENCODING 7913
SWIDTH 675 0
DWIDTH 7 0
BBX 9 9 1 0
BITMAP
0600
0C00
0000
6D80
6D80
4F00
D800
F800
D800
ENDCHAR
STARTCHAR uni1EEA
ENCODING 7914
SWIDTH 759 0
DWIDTH 8 0
BBX 10 10 1 0
BITMAP
0C00
0600
0000
66C0
66C0
6780
CC00
CC00
C800
7000
ENDCHAR
STARTCHAR uni1EEB
ENCODING 7915
SWIDTH 675 0
DWIDTH 7 0
BBX 9 9 1 0
BITMAP
1800
0C00
0000
6D80
6D80
4F00
D800
F800
D800
ENDCHAR
STARTCHAR uni1EEE
ENCODING 7918
SWIDTH 759 0
DWIDTH 8 0
BBX 10 10 1 0
BITMAP
0D00
1600
0000
66C0
66C0
6780
CC00
CC00
C800
7000
ENDCHAR
STARTCHAR uni1EEF
ENCODING 7919
SWIDTH 675 0
DWIDTH 7 0
BBX 9 9 1 0
BITMAP
0D00
1600
0000
6D80
6D80
4F00
D800
F800
D800
ENDCHAR
STARTCHAR uni1EF0
ENCODING 7920
SWIDTH 759 0
DWIDTH 8 0
BBX 10 10 1 -3
BITMAP
66C0
66C0
6780
CC00
CC00
C800
7000
0000
3000
3000
ENDCHAR
STARTCHAR uni1EF1
ENCODING 7921
SWIDTH 675 0
DWIDTH 7 0
BBX 9 9 1 -3
BITMAP
6D80
6D80
4F00
D800
F800
D800
0000
3000
3000
ENDCHAR
STARTCHAR Ygrave
ENCODING 7922
SWIDTH 681 0
DWIDTH 7 0
BBX 6 10 2 0
BITMAP
60
30
00
CC
CC
D8
70
60
60
60
ENDCHAR
STARTCHAR ygrave
ENCODING 7923
SWIDTH 633 0
DWIDTH 7 0
BBX 7 11 0 -2
BITMAP
30
18
00
66
66
66
6C
68
70
60
C0
ENDCHAR
STARTCHAR uni1EF4
ENCODING 7924
SWIDTH 681 0
DWIDTH 7 0
BBX 6 10 2 -3
BITMAP
CC
CC
D8
70
60
60
60
00
60
60
ENDCHAR
STARTCHAR uni1EF5
ENCODING 7925
SWIDTH 633 0
DWIDTH 7 0
BBX 7 11 0 -5
BITMAP
66
66
66
6C
68
70
60
C0
00
60
60
ENDCHAR
STARTCHAR uni1EF8
ENCODING 7928
SWIDTH 681 0
DWIDTH 7 0
BBX 6 10 2 0
BITMAP
34
58
00
CC
CC
D8
70
60
60
60
ENDCHAR
STARTCHAR uni1EF9
ENCODING 7929
SWIDTH 633 0
DWIDTH 7 0
BBX 7 11 0 -2
BITMAP
1A
2C
00
66
66
66
6C
68
70
60
C0
ENDCHAR
STARTCHAR uni2000
ENCODING 8192
SWIDTH 500 0
DWIDTH 5 0
BBX 1 1 0 0
BITMAP
00
ENDCHAR
STARTCHAR uni2001
ENCODING 8193
SWIDTH 1000 0
DWIDTH 10 0
BBX 1 1 0 0
BITMAP
00
ENDCHAR
STARTCHAR uni2002
ENCODING 8194
SWIDTH 500 0
DWIDTH 5 0
BBX 1 1 0 0
BITMAP
00
ENDCHAR
STARTCHAR uni2003
ENCODING 8195
SWIDTH 1000 0
DWIDTH 10 0
BBX 1 1 0 0
BITMAP
00
ENDCHAR
STARTCHAR uni2004
ENCODING 8196
SWIDTH 333 0
DWIDTH 3 0
BBX 1 1 0 0
BITMAP
00
ENDCHAR
STARTCHAR uni2005
ENCODING 8197
SWIDTH 250 0
DWIDTH 3 0
BBX 1 1 0 0
BITMAP
00
ENDCHAR
STARTCHAR uni2006
ENCODING 8198
SWIDTH 167 0
DWIDTH 2 0
BBX 1 1 0 0
BITMAP
00
ENDCHAR
STARTCHAR uni2007
ENCODING 8199
SWIDTH 687 0
DWIDTH 7 0
BBX 1 1 0 0
BITMAP
00
ENDCHAR
STARTCHAR uni2008
ENCODING 8200
SWIDTH 343 0
DWIDTH 3 0
BBX 1 1 0 0
BITMAP
00
ENDCHAR
STARTCHAR uni2009
ENCODING 8201
SWIDTH 200 0
DWIDTH 2 0
BBX 1 1 0 0
BITMAP
00
ENDCHAR
STARTCHAR uni200A
ENCODING 8202
SWIDTH 100 0
DWIDTH 1 0
BBX 1 1 0 0
BITMAP
00
ENDCHAR
STARTCHAR uni200B
ENCODING 8203
SWIDTH 0 0
DWIDTH 0 0
BBX 1 1 0 0
BITMAP
00
ENDCHAR
STARTCHAR uni2010
ENCODING 8208
SWIDTH 289 0
DWIDTH 3 0
BBX 2 1 1 3
BITMAP
C0
ENDCHAR
STARTCHAR uni2011
ENCODING 8209
SWIDTH 289 0
DWIDTH 3 0
BBX 2 1 1 3
BITMAP
C0
ENDCHAR
STARTCHAR figuredash
ENCODING 8210
SWIDTH 500 0
DWIDTH 5 0
BBX 4 1 1 3
BITMAP
F0
ENDCHAR
STARTCHAR endash
ENCODING 8211
SWIDTH 500 0
DWIDTH 5 0
BBX 4 1 1 3
BITMAP
F0
ENDCHAR
STARTCHAR emdash
ENCODING 8212
SWIDTH 1000 0
DWIDTH 10 0
BBX 9 1 1 3
BITMAP
FF80
ENDCHAR
STARTCHAR afii00208
ENCODING 8213
SWIDTH 1000 0
DWIDTH 10 0
BBX 9 1 1 3
BITMAP
FF80
ENDCHAR
STARTCHAR quoteleft
ENCODING 8216
SWIDTH 265 0
DWIDTH 3 0
BBX 3 3 1 5
BITMAP
60
C0
C0
ENDCHAR
STARTCHAR quoteright
ENCODING 8217
SWIDTH 265 0
DWIDTH 3 0
BBX 3 3 1 5
BITMAP
60
60
C0
ENDCHAR
STARTCHAR quotesinglbase
ENCODING 8218
SWIDTH 265 0
DWIDTH 3 0
BBX 3 3 0 -1
BITMAP
60
60
C0
ENDCHAR
STARTCHAR quotereversed
ENCODING 8219
SWIDTH 265 0
DWIDTH 3 0
BBX 3 3 1 5
BITMAP
C0
C0
60
ENDCHAR
STARTCHAR quotedblleft
ENCODING 8220
SWIDTH 530 0
DWIDTH 6 0
BBX 6 3 1 5
BITMAP
6C
D8
D8
ENDCHAR
STARTCHAR quotedblright
ENCODING 8221
SWIDTH 530 0
DWIDTH 6 0
BBX 6 3 1 5
BITMAP
6C
6C
D8
ENDCHAR
STARTCHAR quotedblbase
ENCODING 8222
SWIDTH 530 0
DWIDTH 6 0
BBX 6 3 0 -1
BITMAP
6C
6C
D8
ENDCHAR
STARTCHAR uni201F
ENCODING 8223
SWIDTH 530 0
DWIDTH 6 0
BBX 6 3 1 5
BITMAP
D8
D8
6C
ENDCHAR
STARTCHAR dagger
ENCODING 8224
SWIDTH 687 0
DWIDTH 7 0
BBX 5 8 2 -1
BITMAP
30
30
F8
60
60
C0
C0
C0
ENDCHAR
STARTCHAR daggerdbl
ENCODING 8225
SWIDTH 687 0
DWIDTH 7 0
BBX 6 8 1 -1
BITMAP
18
18
7C
30
30
F8
60
60
ENDCHAR
STARTCHAR bullet
ENCODING 8226
SWIDTH 687 0
DWIDTH 7 0
BBX 3 3 2 2
BITMAP
E0
E0
E0
ENDCHAR
STARTCHAR ellipsis
ENCODING 8230
SWIDTH 1000 0
DWIDTH 7 0
BBX 5 2 1 0
BITMAP
88
88
ENDCHAR
STARTCHAR perthousand
ENCODING 8240
SWIDTH 1332 0
DWIDTH 13 0
BBX 12 7 1 0
BITMAP
6200
B600
6C00
1800
3660
6BB0
4660
ENDCHAR
STARTCHAR guilsinglleft
ENCODING 8249
SWIDTH 386 0
DWIDTH 4 0
BBX 4 5 0 1
BITMAP
30
60
C0
60
20
ENDCHAR
STARTCHAR guilsinglright
ENCODING 8250
SWIDTH 386 0
DWIDTH 4 0
BBX 4 5 0 1
BITMAP
40
60
30
60
C0
ENDCHAR
STARTCHAR fraction
ENCODING 8260
SWIDTH 130 0
DWIDTH 5 0
BBX 6 7 0 0
BITMAP
0C
18
18
30
60
60
C0
ENDCHAR
STARTCHAR oneinferior
ENCODING 8321
SWIDTH 539 0
DWIDTH 6 0
BBX 3 5 2 -2
BITMAP
E0
60
40
C0
C0
ENDCHAR
STARTCHAR twoinferior
ENCODING 8322
SWIDTH 539 0
DWIDTH 6 0
BBX 5 5 1 -2
BITMAP
70
18
30
C0
F0
ENDCHAR
STARTCHAR threeinferior
ENCODING 8323
SWIDTH 539 0
DWIDTH 6 0
BBX 5 5 1 -2
BITMAP
70
18
60
30
E0
ENDCHAR
STARTCHAR uni20A5
ENCODING 8357
SWIDTH 991 0
DWIDTH 10 0
BBX 9 9 1 -1
BITMAP
0300
0300
6F80
7F80
6D80
D900
DB00
FB00
3000
ENDCHAR
STARTCHAR uni20A6
ENCODING 8358
SWIDTH 789 0
DWIDTH 8 0
BBX 7 7 1 0
BITMAP
62
72
7E
5C
FC
8C
8C
ENDCHAR
STARTCHAR uni20A9
ENCODING 8361
SWIDTH 991 0
DWIDTH 11 0
BBX 10 7 2 0
BITMAP
C0C0
CCC0
DF80
DD80
FF00
EE00
CC00
ENDCHAR
STARTCHAR Euro
ENCODING 8364
SWIDTH 737 0
DWIDTH 7 0
BBX 8 7 -1 0
BITMAP
07
1C
7C
30
F8
38
1E
ENDCHAR
STARTCHAR uni20AD
ENCODING 8365
SWIDTH 753 0
DWIDTH 8 0
BBX 7 7 1 0
BITMAP
66
6C
78
FE
D8
CC
C6
ENDCHAR
STARTCHAR uni2103
ENCODING 8451
SWIDTH 966 0
DWIDTH 10 0
BBX 10 8 0 0
BITMAP
6000
B1C0
6700
0600
0C00
0C00
0E00
0780
ENDCHAR
STARTCHAR uni2109
ENCODING 8457
SWIDTH 843 0
DWIDTH 9 0
BBX 10 8 0 0
BITMAP
6000
B7C0
6600
0600
0F80
0C00
0C00
0C00
ENDCHAR
STARTCHAR trademark
ENCODING 8482
SWIDTH 901 0
DWIDTH 9 0
BBX 8 3 1 4
BITMAP
FB
5F
55
ENDCHAR
STARTCHAR uni212A
ENCODING 8490
SWIDTH 753 0
DWIDTH 8 0
BBX 7 7 1 0
BITMAP
66
6C
78
F0
D8
CC
C6
ENDCHAR
STARTCHAR uni212B
ENCODING 8491
SWIDTH 771 0
DWIDTH 8 0
BBX 7 9 1 0
BITMAP
0C
16
0C
1C
2C
6C
7C
CC
CC
ENDCHAR
STARTCHAR uni2132
ENCODING 8498
SWIDTH 614 0
DWIDTH 6 0
BBX 6 7 1 0
BITMAP
0C
0C
0C
7C
18
18
F8
ENDCHAR
STARTCHAR minus
ENCODING 8722
SWIDTH 687 0
DWIDTH 7 0
BBX 6 1 1 3
BITMAP
FC
ENDCHAR
STARTCHAR fraction
ENCODING 8725
SWIDTH 130 0
DWIDTH 5 0
BBX 6 7 0 0
BITMAP
0C
18
18
30
60
60
C0
ENDCHAR
STARTCHAR periodcentered
ENCODING 8729
SWIDTH 343 0
DWIDTH 7 0
BBX 2 2 3 2
BITMAP
C0
C0
ENDCHAR
STARTCHAR uni2236
ENCODING 8758
SWIDTH 343 0
DWIDTH 4 0
BBX 3 6 1 0
BITMAP
60
60
00
00
C0
C0
ENDCHAR
STARTCHAR uni2259
ENCODING 8793
SWIDTH 687 0
DWIDTH 7 0
BBX 6 6 1 2
BITMAP
30
58
00
7C
00
F8
ENDCHAR
STARTCHAR uni225A
ENCODING 8794
SWIDTH 687 0
DWIDTH 7 0
BBX 6 6 1 2
BITMAP
58
30
00
7C
00
F8
ENDCHAR
STARTCHAR notequal
ENCODING 8800
SWIDTH 687 0
DWIDTH 7 0
BBX 6 9 1 -1
BITMAP
0C
0C
18
7C
30
F8
60
C0
C0
ENDCHAR
STARTCHAR equivalence
ENCODING 8801
SWIDTH 687 0
DWIDTH 7 0
BBX 6 5 0 1
BITMAP
FC
00
FC
00
FC
ENDCHAR
STARTCHAR uni2262
ENCODING 8802
SWIDTH 687 0
DWIDTH 7 0
BBX 6 9 0 -1
BITMAP
0C
0C
FC
18
FC
60
FC
C0
C0
ENDCHAR
STARTCHAR lessequal
ENCODING 8804
SWIDTH 687 0
DWIDTH 7 0
BBX 6 7 1 -1
BITMAP
1C
70
C0
60
30
00
FC
ENDCHAR
STARTCHAR greaterequal
ENCODING 8805
SWIDTH 687 0
DWIDTH 7 0
BBX 6 7 1 -1
BITMAP
30
18
0C
38
E0
00
FC
ENDCHAR
STARTCHAR uni226E
ENCODING 8814
SWIDTH 687 0
DWIDTH 7 0
BBX 6 9 1 -1
BITMAP
0C
0C
1C
78
F0
60
70
C0
C0
ENDCHAR
STARTCHAR uni226F
ENCODING 8815
SWIDTH 687 0
DWIDTH 7 0
BBX 6 9 1 -1
BITMAP
0C
0C
38
18
3C
78
E0
C0
C0
ENDCHAR
STARTCHAR uni2270
ENCODING 8816
SWIDTH 687 0
DWIDTH 7 0
BBX 6 9 1 -2
BITMAP
0C
1C
78
D8
70
70
60
FC
C0
ENDCHAR
STARTCHAR uni2271
ENCODING 8817
SWIDTH 687 0
DWIDTH 7 0
BBX 6 9 1 -2
BITMAP
0C
3C
18
1C
38
E0
60
FC
C0
ENDCHAR
STARTCHAR fi
ENCODING -1
SWIDTH 695 0
DWIDTH 8 0
BBX 7 10 1 -2
BITMAP
1E
30
7E
36
66
6C
6C
CC
C0
C0
ENDCHAR
STARTCHAR fl
ENCODING -1
SWIDTH 695 0
DWIDTH 8 0
BBX 8 10 1 -2
BITMAP
1F
33
7E
36
66
6C
6C
EC
C0
C0
ENDCHAR
ENDFONT
